<svg version="1.1" viewBox="0.0 0.0 480.0 288.0" fill="none" stroke="none" stroke-linecap="square" stroke-miterlimit="10" xmlns:xlink="http://www.w3.org/1999/xlink" xmlns="http://www.w3.org/2000/svg"><clipPath id="gf0d1d47f3d_0_7.0"><path d="m0 0l480.0 0l0 288.0l-480.0 0l0 -288.0z" clip-rule="nonzero"/></clipPath><g clip-path="url(#gf0d1d47f3d_0_7.0)"><path fill="#ffffff" d="m0 0l480.0 0l0 288.0l-480.0 0z" fill-rule="evenodd"/><path shape-rendering="crispEdges" fill="#cccccc" d="m282.43372 51.266144l82.04199 0l0 35.524933l-82.04199 0l0 -35.524933z" fill-rule="nonzero"/><path shape-rendering="crispEdges" fill="#e06666" d="m364.4757 51.266144l82.04202 0l0 35.524933l-82.04202 0l0 -35.524933z" fill-rule="nonzero"/><path shape-rendering="crispEdges" fill="#cccccc" d="m282.43372 86.79108l82.04199 0l0 35.524933l-82.04199 0l0 -35.524933z" fill-rule="nonzero"/><path shape-rendering="crispEdges" fill="#e06666" d="m364.4757 86.79108l82.04202 0l0 35.524933l-82.04202 0l0 -35.524933z" fill-rule="nonzero"/><path shape-rendering="crispEdges" fill="#cccccc" d="m282.43372 122.31601l82.04199 0l0 35.524933l-82.04199 0l0 -35.524933z" fill-rule="nonzero"/><path shape-rendering="crispEdges" fill="#cccccc" d="m282.43372 157.84094l82.04199 0l0 35.524933l-82.04199 0l0 -35.524933z" fill-rule="nonzero"/><path stroke="#9e9e9e" stroke-width="1.0" stroke-linecap="butt" d="m282.43372 50.767456l0 143.0971" fill-rule="nonzero"/><path stroke="#9e9e9e" stroke-width="1.0" stroke-linecap="butt" d="m364.4757 50.767456l0 143.0971" fill-rule="nonzero"/><path stroke="#9e9e9e" stroke-width="1.0" stroke-linecap="butt" d="m446.51773 50.767456l0 143.0971" fill-rule="nonzero"/><path stroke="#9e9e9e" stroke-width="1.0" stroke-linecap="butt" d="m281.93503 51.266144l165.08139 0" fill-rule="nonzero"/><path stroke="#9e9e9e" stroke-width="1.0" stroke-linecap="butt" d="m281.93503 86.79108l165.08139 0" fill-rule="nonzero"/><path stroke="#9e9e9e" stroke-width="1.0" stroke-linecap="butt" d="m281.93503 122.31601l165.08139 0" fill-rule="nonzero"/><path stroke="#9e9e9e" stroke-width="1.0" stroke-linecap="butt" d="m281.93503 157.84094l165.08139 0" fill-rule="nonzero"/><path stroke="#9e9e9e" stroke-width="1.0" stroke-linecap="butt" d="m281.93503 193.36588l165.08139 0" fill-rule="nonzero"/><path fill="#000000" d="m303.80872 68.02864l0 2.203125q0 1.953125 -1.140625 3.75q-1.125 1.78125 -3.21875 1.78125q-1.203125 0 -2.046875 -0.53125q-0.828125 -0.53125 -1.578125 -1.96875q-0.75 -1.4375 -0.75 -3.03125l0 -2.203125q0 -1.9375 1.125 -3.71875q1.125 -1.796875 3.21875 -1.796875q1.203125 0 2.03125 0.53125q0.84375 0.515625 1.59375 1.953125q0.765625 1.421875 0.765625 3.03125zm-2.015625 0q0 -1.625 -0.90625 -2.84375q-0.515625 -0.671875 -1.453125 -0.671875q-0.90625 0 -1.484375 0.734375q-0.875 1.125 -0.875 2.78125l0 2.203125q0 1.640625 0.921875 2.84375q0.5 0.6875 1.453125 0.6875q0.90625 0 1.46875 -0.75q0.875 -1.125 0.875 -2.78125l0 -2.203125zm11.142578 2.828125l3.03125 2.609375q0.546875 0.03125 0.8125 0.3125q0.28125 0.265625 0.28125 0.6875q0 0.4375 -0.3125 0.71875q-0.296875 0.28125 -1.015625 0.28125l-2.28125 0q-0.71875 0 -1.03125 -0.28125q-0.296875 -0.28125 -0.296875 -0.734375q0 -0.359375 0.21875 -0.625q0.21875 -0.265625 0.59375 -0.359375l-1.5 -1.296875l-1.515625 1.296875q0.453125 0.109375 0.65625 0.359375q0.203125 0.25 0.203125 0.625q0 0.453125 -0.3125 0.734375q-0.296875 0.28125 -1.015625 0.28125l-2.25 0q-0.734375 0 -1.046875 -0.28125q-0.296875 -0.28125 -0.296875 -0.71875q0 -0.421875 0.265625 -0.6875q0.28125 -0.28125 0.828125 -0.3125l2.96875 -2.625l-2.625 -2.234375q-0.515625 -0.046875 -0.796875 -0.328125q-0.265625 -0.28125 -0.265625 -0.6875q0 -0.4375 0.3125 -0.71875q0.3125 -0.28125 1.03125 -0.28125l1.875 0q0.71875 0 1.03125 0.28125q0.3125 0.28125 0.3125 0.71875q0 0.5625 -0.546875 0.9375l1.203125 1.0l1.1875 -1.03125q-0.53125 -0.375 -0.53125 -0.875q0 -0.46875 0.296875 -0.75q0.3125 -0.28125 1.046875 -0.28125l1.84375 0q0.734375 0 1.03125 0.28125q0.3125 0.28125 0.3125 0.734375q0 0.390625 -0.265625 0.671875q-0.265625 0.28125 -0.796875 0.328125l-2.640625 2.25zm8.626953 2.609375l4.390625 0q0.359375 -0.296875 0.6875 -0.296875q0.453125 0 0.71875 0.3125q0.28125 0.296875 0.28125 1.03125l0 0.953125l-9.125 0l0 -2.125q5.40625 -4.453125 6.53125 -5.734375q0.5625 -0.65625 0.5625 -1.25q0 -0.71875 -0.640625 -1.28125q-0.640625 -0.5625 -1.703125 -0.5625q-1.078125 0 -1.78125 0.625q-0.375 0.328125 -0.59375 0.984375q-0.140625 0.40625 -0.390625 0.59375q-0.234375 0.171875 -0.578125 0.171875q-0.40625 0 -0.71875 -0.296875q-0.296875 -0.296875 -0.296875 -0.6875q0 -0.578125 0.546875 -1.453125q0.546875 -0.890625 1.578125 -1.40625q1.046875 -0.53125 2.265625 -0.53125q1.890625 0 3.09375 1.140625q1.21875 1.140625 1.21875 2.78125q0 0.828125 -0.34375 1.546875q-0.34375 0.703125 -1.65625 1.953125q-1.046875 0.984375 -4.046875 3.53125zm18.251953 -5.4375l0 2.203125q0 1.953125 -1.140625 3.75q-1.125 1.78125 -3.21875 1.78125q-1.203125 0 -2.046875 -0.53125q-0.828125 -0.53125 -1.578125 -1.96875q-0.75 -1.4375 -0.75 -3.03125l0 -2.203125q0 -1.9375 1.125 -3.71875q1.125 -1.796875 3.21875 -1.796875q1.203125 0 2.03125 0.53125q0.84375 0.515625 1.59375 1.953125q0.765625 1.421875 0.765625 3.03125zm-2.015625 0q0 -1.625 -0.90625 -2.84375q-0.515625 -0.671875 -1.453125 -0.671875q-0.90625 0 -1.484375 0.734375q-0.875 1.125 -0.875 2.78125l0 2.203125q0 1.640625 0.921875 2.84375q0.5 0.6875 1.453125 0.6875q0.90625 0 1.46875 -0.75q0.875 -1.125 0.875 -2.78125l0 -2.203125z" fill-rule="nonzero"/><path fill="#000000" d="m385.8507 68.02864l0 2.203125q0 1.953125 -1.140625 3.75q-1.125 1.78125 -3.21875 1.78125q-1.203125 0 -2.046875 -0.53125q-0.828125 -0.53125 -1.578125 -1.96875q-0.75 -1.4375 -0.75 -3.03125l0 -2.203125q0 -1.9375 1.125 -3.71875q1.125 -1.796875 3.21875 -1.796875q1.203125 0 2.03125 0.53125q0.84375 0.515625 1.59375 1.953125q0.765625 1.421875 0.765625 3.03125zm-2.015625 0q0 -1.625 -0.90625 -2.84375q-0.515625 -0.671875 -1.453125 -0.671875q-0.90625 0 -1.484375 0.734375q-0.875 1.125 -0.875 2.78125l0 2.203125q0 1.640625 0.921875 2.84375q0.5 0.6875 1.453125 0.6875q0.90625 0 1.46875 -0.75q0.875 -1.125 0.875 -2.78125l0 -2.203125z" fill-rule="nonzero"/><path fill="#000000" d="m303.80872 103.55357l0 2.203125q0 1.953125 -1.140625 3.75q-1.125 1.78125 -3.21875 1.78125q-1.203125 0 -2.046875 -0.53125q-0.828125 -0.53125 -1.578125 -1.96875q-0.75 -1.4375 -0.75 -3.03125l0 -2.203125q0 -1.9375 1.125 -3.71875q1.125 -1.796875 3.21875 -1.796875q1.203125 0 2.03125 0.53125q0.84375 0.515625 1.59375 1.953125q0.765625 1.421875 0.765625 3.03125zm-2.015625 0q0 -1.625 -0.90625 -2.84375q-0.515625 -0.671875 -1.453125 -0.671875q-0.90625 0 -1.484375 0.734375q-0.875 1.125 -0.875 2.78125l0 2.203125q0 1.640625 0.921875 2.84375q0.5 0.6875 1.453125 0.6875q0.90625 0 1.46875 -0.75q0.875 -1.125 0.875 -2.78125l0 -2.203125zm11.142578 2.828125l3.03125 2.609375q0.546875 0.03125 0.8125 0.3125q0.28125 0.265625 0.28125 0.6875q0 0.4375 -0.3125 0.71875q-0.296875 0.28125 -1.015625 0.28125l-2.28125 0q-0.71875 0 -1.03125 -0.28125q-0.296875 -0.28125 -0.296875 -0.734375q0 -0.359375 0.21875 -0.625q0.21875 -0.265625 0.59375 -0.359375l-1.5 -1.296875l-1.515625 1.296875q0.453125 0.109375 0.65625 0.359375q0.203125 0.25 0.203125 0.625q0 0.453125 -0.3125 0.734375q-0.296875 0.28125 -1.015625 0.28125l-2.25 0q-0.734375 0 -1.046875 -0.28125q-0.296875 -0.28125 -0.296875 -0.71875q0 -0.421875 0.265625 -0.6875q0.28125 -0.28125 0.828125 -0.3125l2.96875 -2.625l-2.625 -2.234375q-0.515625 -0.046875 -0.796875 -0.328125q-0.265625 -0.28125 -0.265625 -0.6875q0 -0.4375 0.3125 -0.71875q0.3125 -0.28125 1.03125 -0.28125l1.875 0q0.71875 0 1.03125 0.28125q0.3125 0.28125 0.3125 0.71875q0 0.5625 -0.546875 0.9375l1.203125 1.0l1.1875 -1.03125q-0.53125 -0.375 -0.53125 -0.875q0 -0.46875 0.296875 -0.75q0.3125 -0.28125 1.046875 -0.28125l1.84375 0q0.734375 0 1.03125 0.28125q0.3125 0.28125 0.3125 0.734375q0 0.390625 -0.265625 0.671875q-0.265625 0.28125 -0.796875 0.328125l-2.640625 2.25zm8.626953 2.609375l4.390625 0q0.359375 -0.296875 0.6875 -0.296875q0.453125 0 0.71875 0.3125q0.28125 0.296875 0.28125 1.03125l0 0.953125l-9.125 0l0 -2.125q5.40625 -4.453125 6.53125 -5.734375q0.5625 -0.65625 0.5625 -1.25q0 -0.71875 -0.640625 -1.28125q-0.640625 -0.5625 -1.703125 -0.5625q-1.078125 0 -1.78125 0.625q-0.375 0.328125 -0.59375 0.984375q-0.140625 0.40625 -0.390625 0.59375q-0.234375 0.171875 -0.578125 0.171875q-0.40625 0 -0.71875 -0.296875q-0.296875 -0.296875 -0.296875 -0.6875q0 -0.578125 0.546875 -1.453125q0.546875 -0.890625 1.578125 -1.40625q1.046875 -0.53125 2.265625 -0.53125q1.890625 0 3.09375 1.140625q1.21875 1.140625 1.21875 2.78125q0 0.828125 -0.34375 1.546875q-0.34375 0.703125 -1.65625 1.953125q-1.046875 0.984375 -4.046875 3.53125zm16.814453 -10.640625l0 7.828125q0.640625 0 0.9375 0.28125q0.296875 0.28125 0.296875 0.71875q0 0.4375 -0.3125 0.734375q-0.296875 0.28125 -0.921875 0.28125l0 0.796875q0.640625 0 0.9375 0.28125q0.296875 0.28125 0.296875 0.71875q0 0.4375 -0.3125 0.71875q-0.296875 0.28125 -1.015625 0.28125l-2.6875 0q-0.71875 0 -1.03125 -0.28125q-0.3125 -0.28125 -0.3125 -0.71875q0 -0.453125 0.3125 -0.71875q0.3125 -0.28125 1.03125 -0.28125l0.78125 0l0 -0.796875l-5.4375 0l0 -1.671875l4.796875 -8.171875l2.640625 0zm-2.0 7.828125l0 -4.921875l-2.90625 4.921875l2.90625 0z" fill-rule="nonzero"/><path fill="#000000" d="m385.8507 103.55357l0 2.203125q0 1.953125 -1.140625 3.75q-1.125 1.78125 -3.21875 1.78125q-1.203125 0 -2.046875 -0.53125q-0.828125 -0.53125 -1.578125 -1.96875q-0.75 -1.4375 -0.75 -3.03125l0 -2.203125q0 -1.9375 1.125 -3.71875q1.125 -1.796875 3.21875 -1.796875q1.203125 0 2.03125 0.53125q0.84375 0.515625 1.59375 1.953125q0.765625 1.421875 0.765625 3.03125zm-2.015625 0q0 -1.625 -0.90625 -2.84375q-0.515625 -0.671875 -1.453125 -0.671875q-0.90625 0 -1.484375 0.734375q-0.875 1.125 -0.875 2.78125l0 2.203125q0 1.640625 0.921875 2.84375q0.5 0.6875 1.453125 0.6875q0.90625 0 1.46875 -0.75q0.875 -1.125 0.875 -2.78125l0 -2.203125z" fill-rule="nonzero"/><path fill="#000000" d="m303.80872 139.0785l0 2.203125q0 1.953125 -1.140625 3.75q-1.125 1.78125 -3.21875 1.78125q-1.203125 0 -2.046875 -0.53125q-0.828125 -0.53125 -1.578125 -1.96875q-0.75 -1.4375 -0.75 -3.03125l0 -2.203125q0 -1.9375 1.125 -3.71875q1.125 -1.796875 3.21875 -1.796875q1.203125 0 2.03125 0.53125q0.84375 0.515625 1.59375 1.953125q0.765625 1.421875 0.765625 3.03125zm-2.015625 0q0 -1.625 -0.90625 -2.84375q-0.515625 -0.671875 -1.453125 -0.671875q-0.90625 0 -1.484375 0.734375q-0.875 1.125 -0.875 2.78125l0 2.203125q0 1.640625 0.921875 2.84375q0.5 0.6875 1.453125 0.6875q0.90625 0 1.46875 -0.75q0.875 -1.125 0.875 -2.78125l0 -2.203125zm11.142578 2.828125l3.03125 2.609375q0.546875 0.03125 0.8125 0.3125q0.28125 0.265625 0.28125 0.6875q0 0.4375 -0.3125 0.71875q-0.296875 0.28125 -1.015625 0.28125l-2.28125 0q-0.71875 0 -1.03125 -0.28125q-0.296875 -0.28125 -0.296875 -0.734375q0 -0.359375 0.21875 -0.625q0.21875 -0.265625 0.59375 -0.359375l-1.5 -1.296875l-1.515625 1.296875q0.453125 0.109375 0.65625 0.359375q0.203125 0.25 0.203125 0.625q0 0.453125 -0.3125 0.734375q-0.296875 0.28125 -1.015625 0.28125l-2.25 0q-0.734375 0 -1.046875 -0.28125q-0.296875 -0.28125 -0.296875 -0.71875q0 -0.421875 0.265625 -0.6875q0.28125 -0.28125 0.828125 -0.3125l2.96875 -2.625l-2.625 -2.234375q-0.515625 -0.046875 -0.796875 -0.328125q-0.265625 -0.28125 -0.265625 -0.6875q0 -0.4375 0.3125 -0.71875q0.3125 -0.28125 1.03125 -0.28125l1.875 0q0.71875 0 1.03125 0.28125q0.3125 0.28125 0.3125 0.71875q0 0.5625 -0.546875 0.9375l1.203125 1.0l1.1875 -1.03125q-0.53125 -0.375 -0.53125 -0.875q0 -0.46875 0.296875 -0.75q0.3125 -0.28125 1.046875 -0.28125l1.84375 0q0.734375 0 1.03125 0.28125q0.3125 0.28125 0.3125 0.734375q0 0.390625 -0.265625 0.671875q-0.265625 0.28125 -0.796875 0.328125l-2.640625 2.25zm8.626953 2.609375l4.390625 0q0.359375 -0.296875 0.6875 -0.296875q0.453125 0 0.71875 0.3125q0.28125 0.296875 0.28125 1.03125l0 0.953125l-9.125 0l0 -2.125q5.40625 -4.453125 6.53125 -5.734375q0.5625 -0.65625 0.5625 -1.25q0 -0.71875 -0.640625 -1.28125q-0.640625 -0.5625 -1.703125 -0.5625q-1.078125 0 -1.78125 0.625q-0.375 0.328125 -0.59375 0.984375q-0.140625 0.40625 -0.390625 0.59375q-0.234375 0.171875 -0.578125 0.171875q-0.40625 0 -0.71875 -0.296875q-0.296875 -0.296875 -0.296875 -0.6875q0 -0.578125 0.546875 -1.453125q0.546875 -0.890625 1.578125 -1.40625q1.046875 -0.53125 2.265625 -0.53125q1.890625 0 3.09375 1.140625q1.21875 1.140625 1.21875 2.78125q0 0.828125 -0.34375 1.546875q-0.34375 0.703125 -1.65625 1.953125q-1.046875 0.984375 -4.046875 3.53125zm16.720703 -4.390625q0.765625 0.59375 1.140625 1.359375q0.390625 0.75 0.390625 1.65625q0 1.0 -0.5 1.84375q-0.484375 0.84375 -1.546875 1.34375q-1.046875 0.484375 -2.328125 0.484375q-1.296875 0 -2.328125 -0.484375q-1.03125 -0.5 -1.53125 -1.34375q-0.484375 -0.859375 -0.484375 -1.84375q0 -0.90625 0.375 -1.65625q0.390625 -0.765625 1.15625 -1.359375q-0.671875 -0.625 -1.015625 -1.328125q-0.328125 -0.703125 -0.328125 -1.484375q0 -1.546875 1.171875 -2.640625q1.171875 -1.109375 3.0 -1.109375q1.84375 0 3.015625 1.109375q1.171875 1.09375 1.171875 2.640625q0 0.78125 -0.34375 1.484375q-0.34375 0.703125 -1.015625 1.328125zm-0.703125 -2.78125q0 -0.734375 -0.578125 -1.25q-0.578125 -0.53125 -1.5625 -0.53125q-1.0 0 -1.578125 0.53125q-0.578125 0.515625 -0.578125 1.25q0 0.75 0.578125 1.28125q0.578125 0.515625 1.578125 0.515625q0.984375 0 1.5625 -0.515625q0.578125 -0.53125 0.578125 -1.28125zm0.234375 5.890625q0 -0.796875 -0.6875 -1.4375q-0.671875 -0.640625 -1.671875 -0.640625q-1.0 0 -1.6875 0.640625q-0.671875 0.640625 -0.671875 1.453125q0 0.625 0.578125 1.09375q0.59375 0.46875 1.78125 0.46875q1.203125 0 1.78125 -0.46875q0.578125 -0.46875 0.578125 -1.109375z" fill-rule="nonzero"/><path fill="#000000" d="m379.6007 139.67226q0.71875 -0.59375 1.375 -0.875q0.65625 -0.28125 1.390625 -0.28125q1.578125 0 2.75 1.25q1.1875 1.25 1.1875 3.140625q0 1.75 -1.09375 2.828125q-1.09375 1.078125 -2.984375 1.078125q-1.578125 0 -2.59375 -0.734375q-1.015625 -0.734375 -1.53125 -2.25q-0.515625 -1.53125 -0.515625 -3.40625q0 -2.25 1.015625 -3.734375q1.03125 -1.484375 2.421875 -2.296875q1.390625 -0.828125 2.9375 -0.828125q1.21875 0 1.890625 0.46875q0.4375 0.328125 0.4375 0.828125q0 0.4375 -0.296875 0.734375q-0.296875 0.296875 -0.703125 0.296875q-0.234375 0 -0.671875 -0.234375q-0.265625 -0.140625 -0.5 -0.140625q-0.96875 0 -2.0 0.546875q-1.015625 0.546875 -1.765625 1.65625q-0.515625 0.78125 -0.75 1.953125zm0.296875 3.109375q0.3125 1.171875 0.84375 1.609375q0.53125 0.421875 1.515625 0.421875q0.984375 0 1.515625 -0.515625q0.53125 -0.53125 0.53125 -1.421875q0 -1.015625 -0.609375 -1.6875q-0.609375 -0.671875 -1.375 -0.671875q-0.609375 0 -1.296875 0.59375q-0.6875 0.59375 -1.125 1.671875z" fill-rule="nonzero"/><path fill="#000000" d="m303.80872 174.60344l0 2.203125q0 1.953125 -1.140625 3.75q-1.125 1.78125 -3.21875 1.78125q-1.203125 0 -2.046875 -0.53125q-0.828125 -0.53125 -1.578125 -1.96875q-0.75 -1.4375 -0.75 -3.03125l0 -2.203125q0 -1.9375 1.125 -3.71875q1.125 -1.796875 3.21875 -1.796875q1.203125 0 2.03125 0.53125q0.84375 0.515625 1.59375 1.953125q0.765625 1.421875 0.765625 3.03125zm-2.015625 0q0 -1.625 -0.90625 -2.84375q-0.515625 -0.671875 -1.453125 -0.671875q-0.90625 0 -1.484375 0.734375q-0.875 1.125 -0.875 2.78125l0 2.203125q0 1.640625 0.921875 2.84375q0.5 0.6875 1.453125 0.6875q0.90625 0 1.46875 -0.75q0.875 -1.125 0.875 -2.78125l0 -2.203125zm11.142578 2.828125l3.03125 2.609375q0.546875 0.03125 0.8125 0.3125q0.28125 0.265625 0.28125 0.6875q0 0.4375 -0.3125 0.71875q-0.296875 0.28125 -1.015625 0.28125l-2.28125 0q-0.71875 0 -1.03125 -0.28125q-0.296875 -0.28125 -0.296875 -0.734375q0 -0.359375 0.21875 -0.625q0.21875 -0.265625 0.59375 -0.359375l-1.5 -1.296875l-1.515625 1.296875q0.453125 0.109375 0.65625 0.359375q0.203125 0.25 0.203125 0.625q0 0.453125 -0.3125 0.734375q-0.296875 0.28125 -1.015625 0.28125l-2.25 0q-0.734375 0 -1.046875 -0.28125q-0.296875 -0.28125 -0.296875 -0.71875q0 -0.421875 0.265625 -0.6875q0.28125 -0.28125 0.828125 -0.3125l2.96875 -2.625l-2.625 -2.234375q-0.515625 -0.046875 -0.796875 -0.328125q-0.265625 -0.28125 -0.265625 -0.6875q0 -0.4375 0.3125 -0.71875q0.3125 -0.28125 1.03125 -0.28125l1.875 0q0.71875 0 1.03125 0.28125q0.3125 0.28125 0.3125 0.71875q0 0.5625 -0.546875 0.9375l1.203125 1.0l1.1875 -1.03125q-0.53125 -0.375 -0.53125 -0.875q0 -0.46875 0.296875 -0.75q0.3125 -0.28125 1.046875 -0.28125l1.84375 0q0.734375 0 1.03125 0.28125q0.3125 0.28125 0.3125 0.734375q0 0.390625 -0.265625 0.671875q-0.265625 0.28125 -0.796875 0.328125l-2.640625 2.25zm8.626953 2.609375l4.390625 0q0.359375 -0.296875 0.6875 -0.296875q0.453125 0 0.71875 0.3125q0.28125 0.296875 0.28125 1.03125l0 0.953125l-9.125 0l0 -2.125q5.40625 -4.453125 6.53125 -5.734375q0.5625 -0.65625 0.5625 -1.25q0 -0.71875 -0.640625 -1.28125q-0.640625 -0.5625 -1.703125 -0.5625q-1.078125 0 -1.78125 0.625q-0.375 0.328125 -0.59375 0.984375q-0.140625 0.40625 -0.390625 0.59375q-0.234375 0.171875 -0.578125 0.171875q-0.40625 0 -0.71875 -0.296875q-0.296875 -0.296875 -0.296875 -0.6875q0 -0.578125 0.546875 -1.453125q0.546875 -0.890625 1.578125 -1.40625q1.046875 -0.53125 2.265625 -0.53125q1.890625 0 3.09375 1.140625q1.21875 1.140625 1.21875 2.78125q0 0.828125 -0.34375 1.546875q-0.34375 0.703125 -1.65625 1.953125q-1.046875 0.984375 -4.046875 3.53125zm17.001953 -6.5q0.359375 -0.34375 0.734375 -0.34375q0.4375 0 0.703125 0.3125q0.28125 0.296875 0.28125 1.015625l0 1.28125q0 0.71875 -0.28125 1.03125q-0.265625 0.296875 -0.71875 0.296875q-0.40625 0 -0.6875 -0.234375q-0.203125 -0.171875 -0.328125 -0.703125q-0.109375 -0.546875 -0.5625 -0.8125q-0.796875 -0.46875 -2.03125 -0.46875q-1.40625 0 -2.265625 0.828125q-0.859375 0.828125 -0.859375 2.09375q0 1.171875 0.8125 1.859375q0.828125 0.671875 2.734375 0.671875q1.25 0 2.046875 -0.25q0.46875 -0.15625 0.890625 -0.53125q0.421875 -0.375 0.765625 -0.375q0.40625 0 0.703125 0.296875q0.296875 0.296875 0.296875 0.71875q0 0.65625 -0.90625 1.25q-1.34375 0.890625 -3.953125 0.890625q-2.328125 0 -3.625 -0.96875q-1.765625 -1.296875 -1.765625 -3.546875q0 -2.140625 1.421875 -3.53125q1.4375 -1.40625 3.734375 -1.40625q0.828125 0 1.53125 0.15625q0.71875 0.15625 1.328125 0.46875z" fill-rule="nonzero"/><path fill="#000000" d="m382.4757 169.36906l0 10.671875l2.40625 0q0.71875 0 1.03125 0.28125q0.3125 0.265625 0.3125 0.71875q0 0.4375 -0.3125 0.71875q-0.3125 0.28125 -1.03125 0.28125l-6.8125 0q-0.71875 0 -1.03125 -0.28125q-0.296875 -0.28125 -0.296875 -0.71875q0 -0.453125 0.296875 -0.71875q0.3125 -0.28125 1.03125 -0.28125l2.40625 0l0 -8.671875l-1.609375 0q-0.71875 0 -1.03125 -0.265625q-0.3125 -0.28125 -0.3125 -0.734375q0 -0.4375 0.3125 -0.71875q0.3125 -0.28125 1.03125 -0.28125l3.609375 0z" fill-rule="nonzero"/><path fill="#000000" fill-opacity="0.0" d="m192.55905 68.656166l89.85828 0" fill-rule="evenodd"/><path stroke="#000000" stroke-width="2.0" stroke-linejoin="round" stroke-linecap="butt" d="m192.55905 68.656166l77.85828 0" fill-rule="evenodd"/><path fill="#000000" stroke="#000000" stroke-width="2.0" stroke-linecap="butt" d="m270.41733 71.95963l9.076202 -3.3034668l-9.076202 -3.3034592z" fill-rule="evenodd"/><path shape-rendering="crispEdges" fill="#cccccc" d="m28.294619 51.266144l82.042 0l0 35.524933l-82.042 0l0 -35.524933z" fill-rule="nonzero"/><path stroke="#9e9e9e" stroke-width="1.0" stroke-linecap="butt" d="m28.294619 50.767456l0 36.52231" fill-rule="nonzero"/><path stroke="#9e9e9e" stroke-width="1.0" stroke-linecap="butt" d="m110.33662 50.767456l0 36.52231" fill-rule="nonzero"/><path stroke="#9e9e9e" stroke-width="1.0" stroke-linecap="butt" d="m192.37862 50.767456l0 36.52231" fill-rule="nonzero"/><path stroke="#9e9e9e" stroke-width="1.0" stroke-linecap="butt" d="m27.79593 51.266144l165.08138 0" fill-rule="nonzero"/><path stroke="#9e9e9e" stroke-width="1.0" stroke-linecap="butt" d="m27.79593 86.79108l165.08138 0" fill-rule="nonzero"/><path fill="#000000" d="m47.091496 75.46614l0 -0.46875q-0.75 0.40625 -1.65625 0.59375q-0.90625 0.203125 -1.640625 0.203125q-1.625 0 -2.625 -0.84375q-1.0 -0.859375 -1.0 -1.890625q0 -1.265625 1.28125 -2.34375q1.28125 -1.078125 3.546875 -1.078125q0.90625 0 2.09375 0.1875l0 -0.46875q0 -0.453125 -0.390625 -0.734375q-0.375 -0.28125 -1.453125 -0.28125q-0.890625 0 -2.3125 0.34375q-0.53125 0.125 -0.8125 0.125q-0.40625 0 -0.6875 -0.28125q-0.28125 -0.296875 -0.28125 -0.734375q0 -0.265625 0.09375 -0.4375q0.109375 -0.1875 0.28125 -0.296875q0.171875 -0.125 0.734375 -0.28125q0.75 -0.203125 1.515625 -0.3125q0.765625 -0.125 1.390625 -0.125q1.875 0 2.90625 0.8125q1.03125 0.796875 1.03125 2.1875l0 4.125l0.328125 0q0.734375 0 1.03125 0.28125q0.3125 0.265625 0.3125 0.71875q0 0.4375 -0.3125 0.71875q-0.296875 0.28125 -1.03125 0.28125l-2.34375 0zm0 -3.578125q-1.1875 -0.234375 -2.203125 -0.234375q-1.234375 0 -2.109375 0.59375q-0.546875 0.375 -0.546875 0.765625q0 0.28125 0.265625 0.453125q0.484375 0.328125 1.34375 0.328125q0.71875 0 1.625 -0.28125q0.921875 -0.28125 1.625 -0.765625l0 -0.859375zm14.580078 -3.859375l0 2.203125q0 1.953125 -1.140625 3.75q-1.125 1.78125 -3.21875 1.78125q-1.203125 0 -2.046875 -0.53125q-0.828125 -0.53125 -1.578125 -1.96875q-0.75 -1.4375 -0.75 -3.03125l0 -2.203125q0 -1.9375 1.125 -3.71875q1.125 -1.796875 3.21875 -1.796875q1.203125 0 2.03125 0.53125q0.84375 0.515625 1.59375 1.953125q0.765625 1.421875 0.765625 3.03125zm-2.015625 0q0 -1.625 -0.90625 -2.84375q-0.515625 -0.671875 -1.453125 -0.671875q-0.90625 0 -1.484375 0.734375q-0.875 1.125 -0.875 2.78125l0 2.203125q0 1.640625 0.921875 2.84375q0.5 0.6875 1.453125 0.6875q0.90625 0 1.46875 -0.75q0.875 -1.125 0.875 -2.78125l0 -2.203125z" fill-rule="nonzero"/><path fill="#000000" d="m131.71161 68.02864l0 2.203125q0 1.953125 -1.140625 3.75q-1.125 1.78125 -3.2187424 1.78125q-1.203125 0 -2.046875 -0.53125q-0.828125 -0.53125 -1.578125 -1.96875q-0.75 -1.4375 -0.75 -3.03125l0 -2.203125q0 -1.9375 1.125 -3.71875q1.125 -1.796875 3.21875 -1.796875q1.2031174 0 2.0312424 0.53125q0.84375 0.515625 1.59375 1.953125q0.765625 1.421875 0.765625 3.03125zm-2.015625 0q0 -1.625 -0.90625 -2.84375q-0.515625 -0.671875 -1.4531174 -0.671875q-0.90625 0 -1.484375 0.734375q-0.875 1.125 -0.875 2.78125l0 2.203125q0 1.640625 0.921875 2.84375q0.5 0.6875 1.453125 0.6875q0.9062424 0 1.4687424 -0.75q0.875 -1.125 0.875 -2.78125l0 -2.203125zm11.142578 2.828125l3.03125 2.609375q0.546875 0.03125 0.8125 0.3125q0.28125 0.265625 0.28125 0.6875q0 0.4375 -0.3125 0.71875q-0.296875 0.28125 -1.015625 0.28125l-2.28125 0q-0.71875 0 -1.03125 -0.28125q-0.296875 -0.28125 -0.296875 -0.734375q0 -0.359375 0.21875 -0.625q0.21875 -0.265625 0.59375 -0.359375l-1.5 -1.296875l-1.515625 1.296875q0.453125 0.109375 0.65625 0.359375q0.203125 0.25 0.203125 0.625q0 0.453125 -0.3125 0.734375q-0.296875 0.28125 -1.015625 0.28125l-2.25 0q-0.734375 0 -1.046875 -0.28125q-0.296875 -0.28125 -0.296875 -0.71875q0 -0.421875 0.265625 -0.6875q0.28125 -0.28125 0.828125 -0.3125l2.96875 -2.625l-2.625 -2.234375q-0.515625 -0.046875 -0.796875 -0.328125q-0.265625 -0.28125 -0.265625 -0.6875q0 -0.4375 0.3125 -0.71875q0.3125 -0.28125 1.03125 -0.28125l1.875 0q0.71875 0 1.03125 0.28125q0.3125 0.28125 0.3125 0.71875q0 0.5625 -0.546875 0.9375l1.203125 1.0l1.1875 -1.03125q-0.53125 -0.375 -0.53125 -0.875q0 -0.46875 0.296875 -0.75q0.3125 -0.28125 1.046875 -0.28125l1.84375 0q0.734375 0 1.03125 0.28125q0.3125 0.28125 0.3125 0.734375q0 0.390625 -0.265625 0.671875q-0.265625 0.28125 -0.796875 0.328125l-2.640625 2.25zm8.626953 2.609375l4.390625 0q0.359375 -0.296875 0.6875 -0.296875q0.453125 0 0.71875 0.3125q0.28125 0.296875 0.28125 1.03125l0 0.953125l-9.125 0l0 -2.125q5.40625 -4.453125 6.53125 -5.734375q0.5625 -0.65625 0.5625 -1.25q0 -0.71875 -0.640625 -1.28125q-0.640625 -0.5625 -1.703125 -0.5625q-1.078125 0 -1.78125 0.625q-0.375 0.328125 -0.59375 0.984375q-0.140625 0.40625 -0.390625 0.59375q-0.234375 0.171875 -0.578125 0.171875q-0.40625 0 -0.71875 -0.296875q-0.296875 -0.296875 -0.296875 -0.6875q0 -0.578125 0.546875 -1.453125q0.546875 -0.890625 1.578125 -1.40625q1.046875 -0.53125 2.265625 -0.53125q1.890625 0 3.09375 1.140625q1.21875 1.140625 1.21875 2.78125q0 0.828125 -0.34375 1.546875q-0.34375 0.703125 -1.65625 1.953125q-1.046875 0.984375 -4.046875 3.53125zm18.251953 -5.4375l0 2.203125q0 1.953125 -1.140625 3.75q-1.125 1.78125 -3.21875 1.78125q-1.203125 0 -2.046875 -0.53125q-0.828125 -0.53125 -1.578125 -1.96875q-0.75 -1.4375 -0.75 -3.03125l0 -2.203125q0 -1.9375 1.125 -3.71875q1.125 -1.796875 3.21875 -1.796875q1.203125 0 2.03125 0.53125q0.84375 0.515625 1.59375 1.953125q0.765625 1.421875 0.765625 3.03125zm-2.015625 0q0 -1.625 -0.90625 -2.84375q-0.515625 -0.671875 -1.453125 -0.671875q-0.90625 0 -1.484375 0.734375q-0.875 1.125 -0.875 2.78125l0 2.203125q0 1.640625 0.921875 2.84375q0.5 0.6875 1.453125 0.6875q0.90625 0 1.46875 -0.75q0.875 -1.125 0.875 -2.78125l0 -2.203125z" fill-rule="nonzero"/><path fill="#000000" fill-opacity="0.0" d="m20.08924 14.338583l205.95276 0l0 38.771652l-205.95276 0z" fill-rule="evenodd"/><path fill="#000000" d="m29.05799 38.69858l4.406248 -11.453123l1.640625 0l4.6875 11.453123l-1.734375 0l-1.328125 -3.46875l-4.796873 0l-1.25 3.46875l-1.625 0zm3.312498 -4.703125l3.890625 0l-1.203125 -3.171873q-0.546875 -1.453125 -0.8125 -2.375q-0.21875 1.09375 -0.609375 2.1875l-1.265625 3.359373zm13.828125 4.703125l0 -1.046875q-0.78125 1.234375 -2.3125 1.234375q-1.0 0 -1.828125 -0.546875q-0.828125 -0.546875 -1.296875 -1.53125q-0.453125 -0.984375 -0.453125 -2.25q0 -1.25 0.40625 -2.25q0.421875 -1.0156231 1.25 -1.5468731q0.828125 -0.546875 1.859375 -0.546875q0.75 0 1.328125 0.3125q0.59375 0.3125 0.953125 0.828125l0 -4.109375l1.40625 0l0 11.453123l-1.3125 0zm-4.4375 -4.140625q0 1.59375 0.671875 2.390625q0.671875 0.78125 1.578125 0.78125q0.921875 0 1.5625 -0.75q0.65625 -0.765625 0.65625 -2.3125q0 -1.703125 -0.65625 -2.5q-0.65625 -0.7968731 -1.625 -0.7968731q-0.9375 0 -1.5625 0.7656231q-0.625 0.765625 -0.625 2.421875zm13.3359375 4.140625l0 -1.046875q-0.78125 1.234375 -2.3125 1.234375q-1.0 0 -1.828125 -0.546875q-0.828125 -0.546875 -1.296875 -1.53125q-0.453125 -0.984375 -0.453125 -2.25q0 -1.25 0.40625 -2.25q0.421875 -1.0156231 1.25 -1.5468731q0.828125 -0.546875 1.859375 -0.546875q0.75 0 1.328125 0.3125q0.59375 0.3125 0.953125 0.828125l0 -4.109375l1.40625 0l0 11.453123l-1.3125 0zm-4.4375 -4.140625q0 1.59375 0.671875 2.390625q0.671875 0.78125 1.578125 0.78125q0.921875 0 1.5625 -0.75q0.65625 -0.765625 0.65625 -2.3125q0 -1.703125 -0.65625 -2.5q-0.65625 -0.7968731 -1.625 -0.7968731q-0.9375 0 -1.5625 0.7656231q-0.625 0.765625 -0.625 2.421875zm7.9453125 4.140625l0 -8.296873l1.265625 0l0 1.25q0.484375 -0.875 0.890625 -1.15625q0.40625 -0.28125 0.90625 -0.28125q0.703125 0 1.4375 0.453125l-0.484375 1.296875q-0.515625 -0.296875 -1.03125 -0.296875q-0.453125 0 -0.828125 0.28125q-0.359375 0.2656231 -0.515625 0.7656231q-0.234375 0.75 -0.234375 1.640625l0 4.34375l-1.40625 0zm11.015629 -2.671875l1.453125 0.171875q-0.34375 1.28125 -1.28125 1.984375q-0.921875 0.703125 -2.359375 0.703125q-1.828125 0 -2.890625 -1.125q-1.0625038 -1.125 -1.0625038 -3.140625q0 -2.09375 1.0781288 -3.249998q1.078125 -1.15625 2.796875 -1.15625q1.65625 0 2.703125 1.140625q1.0625 1.1249981 1.0625 3.171873q0 0.125 0 0.375l-6.1875 0q0.078125 1.375 0.765625 2.109375q0.703125 0.71875 1.734375 0.71875q0.78125 0 1.328125 -0.40625q0.546875 -0.40625 0.859375 -1.296875zm-4.609375 -2.28125l4.625 0q-0.09375 -1.046875 -0.53125 -1.5625q-0.671875 -0.8124981 -1.734375 -0.8124981q-0.96875 0 -1.640625 0.6562481q-0.65625 0.640625 -0.71875 1.71875zm7.2734375 2.46875l1.390625 -0.21875q0.109375 0.84375 0.640625 1.296875q0.546875 0.4375 1.5 0.4375q0.96875 0 1.4375 -0.390625q0.46875 -0.40625 0.46875 -0.9375q0 -0.46875 -0.40625 -0.75q-0.296875 -0.1875 -1.4375 -0.46875q-1.546875 -0.390625 -2.15625 -0.671875q-0.59375 -0.296875 -0.90625 -0.796875q-0.296875 -0.5 -0.296875 -1.109375q0 -0.5625 0.25 -1.0312481q0.25 -0.46875 0.6875 -0.78125q0.328125 -0.25 0.890625 -0.40625q0.578125 -0.171875 1.21875 -0.171875q0.984375 0 1.71875 0.28125q0.734375 0.28125 1.078125 0.765625q0.359375 0.46875 0.5 1.2812481l-1.375 0.1875q-0.09375 -0.640625 -0.546875 -0.9999981q-0.453125 -0.359375 -1.265625 -0.359375q-0.96875 0 -1.390625 0.328125q-0.40625 0.3124981 -0.40625 0.7343731q0 0.28125 0.171875 0.5q0.171875 0.21875 0.53125 0.375q0.21875 0.078125 1.25 0.359375q1.484375 0.390625 2.078125 0.65625q0.59375 0.25 0.921875 0.734375q0.34375 0.484375 0.34375 1.203125q0 0.703125 -0.421875 1.328125q-0.40625 0.609375 -1.1875 0.953125q-0.765625 0.34375 -1.734375 0.34375q-1.625 0 -2.46875 -0.671875q-0.84375 -0.671875 -1.078125 -2.0zm8.0 0l1.390625 -0.21875q0.109375 0.84375 0.640625 1.296875q0.546875 0.4375 1.5 0.4375q0.96875 0 1.4375 -0.390625q0.46875 -0.40625 0.46875 -0.9375q0 -0.46875 -0.40625 -0.75q-0.296875 -0.1875 -1.4375 -0.46875q-1.546875 -0.390625 -2.15625 -0.671875q-0.59375 -0.296875 -0.90625 -0.796875q-0.296875 -0.5 -0.296875 -1.109375q0 -0.5625 0.25 -1.0312481q0.25 -0.46875 0.6875 -0.78125q0.328125 -0.25 0.890625 -0.40625q0.578125 -0.171875 1.21875 -0.171875q0.984375 0 1.71875 0.28125q0.734375 0.28125 1.078125 0.765625q0.359375 0.46875 0.5 1.2812481l-1.375 0.1875q-0.09375 -0.640625 -0.546875 -0.9999981q-0.453125 -0.359375 -1.265625 -0.359375q-0.96875 0 -1.390625 0.328125q-0.40625 0.3124981 -0.40625 0.7343731q0 0.28125 0.171875 0.5q0.171875 0.21875 0.53125 0.375q0.21875 0.078125 1.25 0.359375q1.484375 0.390625 2.078125 0.65625q0.59375 0.25 0.921875 0.734375q0.34375 0.484375 0.34375 1.203125q0 0.703125 -0.421875 1.328125q-0.40625 0.609375 -1.1875 0.953125q-0.765625 0.34375 -1.734375 0.34375q-1.625 0 -2.46875 -0.671875q-0.84375 -0.671875 -1.078125 -2.0zm12.4765625 -1.671875q0 -2.296875 1.28125 -3.406248q1.078125 -0.921875 2.609375 -0.921875q1.71875 0 2.796875 1.125q1.09375 1.1093731 1.09375 3.093748q0 1.59375 -0.484375 2.515625q-0.484375 0.921875 -1.40625 1.4375q-0.90625 0.5 -2.0 0.5q-1.734375 0 -2.8125 -1.109375q-1.078125 -1.125 -1.078125 -3.234375zm1.453125 0q0 1.59375 0.6875 2.390625q0.703125 0.796875 1.75 0.796875q1.046875 0 1.734375 -0.796875q0.703125 -0.796875 0.703125 -2.4375q0 -1.53125 -0.703125 -2.328125q-0.6875 -0.7968731 -1.734375 -0.7968731q-1.046875 0 -1.75 0.7968731q-0.6875 0.78125 -0.6875 2.375zm8.3046875 4.15625l0 -7.203123l-1.234375 0l0 -1.09375l1.234375 0l0 -0.890625q0 -0.828125 0.15625 -1.234375q0.203125 -0.546875 0.703125 -0.890625q0.515625 -0.34375 1.4375 -0.34375q0.59375 0 1.3125 0.140625l-0.203125 1.234375q-0.4375 -0.078125 -0.828125 -0.078125q-0.640625 0 -0.90625 0.28125q-0.265625 0.265625 -0.265625 1.015625l0 0.765625l1.609375 0l0 1.09375l-1.609375 0l0 7.203123l-1.40625 0zm8.0 -2.484375l1.390625 -0.21875q0.109375 0.84375 0.640625 1.296875q0.546875 0.4375 1.5 0.4375q0.96875 0 1.4375 -0.390625q0.46875 -0.40625 0.46875 -0.9375q0 -0.46875 -0.40625 -0.75q-0.296875 -0.1875 -1.4375 -0.46875q-1.546875 -0.390625 -2.15625 -0.671875q-0.59375 -0.296875 -0.90625 -0.796875q-0.296875 -0.5 -0.296875 -1.109375q0 -0.5625 0.25 -1.0312481q0.25 -0.46875 0.6875 -0.78125q0.328125 -0.25 0.890625 -0.40625q0.578125 -0.171875 1.21875 -0.171875q0.984375 0 1.71875 0.28125q0.734375 0.28125 1.078125 0.765625q0.359375 0.46875 0.5 1.2812481l-1.375 0.1875q-0.09375 -0.640625 -0.546875 -0.9999981q-0.453125 -0.359375 -1.265625 -0.359375q-0.96875 0 -1.390625 0.328125q-0.40625 0.3124981 -0.40625 0.7343731q0 0.28125 0.171875 0.5q0.171875 0.21875 0.53125 0.375q0.21875 0.078125 1.25 0.359375q1.484375 0.390625 2.078125 0.65625q0.59375 0.25 0.921875 0.734375q0.34375 0.484375 0.34375 1.203125q0 0.703125 -0.421875 1.328125q-0.40625 0.609375 -1.1875 0.953125q-0.765625 0.34375 -1.734375 0.34375q-1.625 0 -2.46875 -0.671875q-0.84375 -0.671875 -1.078125 -2.0zm11.625 1.21875l0.203125 1.25q-0.59375 0.125 -1.0625 0.125q-0.765625 0 -1.1875 -0.234375q-0.421875 -0.25 -0.59375 -0.640625q-0.171875 -0.40625 -0.171875 -1.671875l0 -4.765623l-1.03125 0l0 -1.09375l1.03125 0l0 -2.0625l1.40625 -0.84375l0 2.90625l1.40625 0l0 1.09375l-1.40625 0l0 4.843748q0 0.609375 0.0625 0.78125q0.078125 0.171875 0.25 0.28125q0.171875 0.09375 0.484375 0.09375q0.234375 0 0.609375 -0.0625zm6.789055 0.234375q-0.78125 0.671875 -1.4999924 0.953125q-0.71875 0.265625 -1.546875 0.265625q-1.375 0 -2.109375 -0.671875q-0.734375 -0.671875 -0.734375 -1.703125q0 -0.609375 0.28125 -1.109375q0.28125 -0.515625 0.71875 -0.8125q0.453125 -0.3125 1.015625 -0.46875q0.421875 -0.109375 1.25 -0.203125q1.7031174 -0.203125 2.5156174 -0.484375q0 -0.296875 0 -0.375q0 -0.859375 -0.390625 -1.2031231q-0.5468674 -0.484375 -1.6093674 -0.484375q-0.984375 0 -1.46875 0.359375q-0.46875 0.3437481 -0.6875 1.2187481l-1.375 -0.1875q0.1875 -0.8749981 0.609375 -1.4218731q0.4375 -0.546875 1.25 -0.828125q0.8125 -0.296875 1.875 -0.296875q1.0624924 0 1.7187424 0.25q0.671875 0.25 0.984375 0.625q0.3125 0.375 0.4375 0.9531231q0.078125 0.359375 0.078125 1.296875l0 1.875q0 1.96875 0.078125 2.484375q0.09375 0.515625 0.359375 1.0l-1.46875 0q-0.21875 -0.4375 -0.28125 -1.03125zm-0.109375 -3.140625q-0.765625 0.3125 -2.2968674 0.53125q-0.875 0.125 -1.234375 0.28125q-0.359375 0.15625 -0.5625 0.46875q-0.1875 0.296875 -0.1875 0.65625q0 0.5625 0.421875 0.9375q0.4375 0.375 1.25 0.375q0.8125 0 1.4375 -0.34375q0.6406174 -0.359375 0.9374924 -0.984375q0.234375 -0.46875 0.234375 -1.40625l0 -0.515625zm3.5859375 4.171875l0 -8.296873l1.265625 0l0 1.25q0.484375 -0.875 0.890625 -1.15625q0.40625 -0.28125 0.90625 -0.28125q0.703125 0 1.4375 0.453125l-0.484375 1.296875q-0.515625 -0.296875 -1.03125 -0.296875q-0.453125 0 -0.828125 0.28125q-0.359375 0.2656231 -0.515625 0.7656231q-0.234375 0.75 -0.234375 1.640625l0 4.34375l-1.40625 0zm8.40625 -1.265625l0.203125 1.25q-0.59375 0.125 -1.0625 0.125q-0.765625 0 -1.1875 -0.234375q-0.421875 -0.25 -0.59375 -0.640625q-0.171875 -0.40625 -0.171875 -1.671875l0 -4.765623l-1.03125 0l0 -1.09375l1.03125 0l0 -2.0625l1.40625 -0.84375l0 2.90625l1.40625 0l0 1.09375l-1.40625 0l0 4.843748q0 0.609375 0.0625 0.78125q0.078125 0.171875 0.25 0.28125q0.171875 0.09375 0.484375 0.09375q0.234375 0 0.609375 -0.0625zm5.296875 -2.890625q0 -2.296875 1.28125 -3.406248q1.078125 -0.921875 2.609375 -0.921875q1.71875 0 2.796875 1.125q1.09375 1.1093731 1.09375 3.093748q0 1.59375 -0.484375 2.515625q-0.484375 0.921875 -1.40625 1.4375q-0.90625 0.5 -2.0 0.5q-1.734375 0 -2.8125 -1.109375q-1.078125 -1.125 -1.078125 -3.234375zm1.453125 0q0 1.59375 0.6875 2.390625q0.703125 0.796875 1.75 0.796875q1.046875 0 1.734375 -0.796875q0.703125 -0.796875 0.703125 -2.4375q0 -1.53125 -0.703125 -2.328125q-0.6875 -0.7968731 -1.734375 -0.7968731q-1.046875 0 -1.75 0.7968731q-0.6875 0.78125 -0.6875 2.375zm8.3046875 4.15625l0 -7.203123l-1.234375 0l0 -1.09375l1.234375 0l0 -0.890625q0 -0.828125 0.15625 -1.234375q0.203125 -0.546875 0.703125 -0.890625q0.515625 -0.34375 1.4375 -0.34375q0.59375 0 1.3125 0.140625l-0.203125 1.234375q-0.4375 -0.078125 -0.828125 -0.078125q-0.640625 0 -0.90625 0.28125q-0.265625 0.265625 -0.265625 1.015625l0 0.765625l1.609375 0l0 1.09375l-1.609375 0l0 7.203123l-1.40625 0zm13.96875 -1.03125q-0.78125 0.671875 -1.5 0.953125q-0.71875 0.265625 -1.546875 0.265625q-1.375 0 -2.109375 -0.671875q-0.734375 -0.671875 -0.734375 -1.703125q0 -0.609375 0.28125 -1.109375q0.28125 -0.515625 0.71875 -0.8125q0.453125 -0.3125 1.015625 -0.46875q0.421875 -0.109375 1.25 -0.203125q1.703125 -0.203125 2.515625 -0.484375q0 -0.296875 0 -0.375q0 -0.859375 -0.390625 -1.2031231q-0.546875 -0.484375 -1.609375 -0.484375q-0.984375 0 -1.46875 0.359375q-0.46875 0.3437481 -0.6875 1.2187481l-1.375 -0.1875q0.1875 -0.8749981 0.609375 -1.4218731q0.4375 -0.546875 1.25 -0.828125q0.8125 -0.296875 1.875 -0.296875q1.0625 0 1.71875 0.25q0.671875 0.25 0.984375 0.625q0.3125 0.375 0.4375 0.9531231q0.078125 0.359375 0.078125 1.296875l0 1.875q0 1.96875 0.078125 2.484375q0.09375 0.515625 0.359375 1.0l-1.46875 0q-0.21875 -0.4375 -0.28125 -1.03125zm-0.109375 -3.140625q-0.765625 0.3125 -2.296875 0.53125q-0.875 0.125 -1.234375 0.28125q-0.359375 0.15625 -0.5625 0.46875q-0.1875 0.296875 -0.1875 0.65625q0 0.5625 0.421875 0.9375q0.4375 0.375 1.25 0.375q0.8125 0 1.4375 -0.34375q0.640625 -0.359375 0.9375 -0.984375q0.234375 -0.46875 0.234375 -1.40625l0 -0.515625zm3.5859375 4.171875l0 -8.296873l1.265625 0l0 1.25q0.484375 -0.875 0.890625 -1.15625q0.40625 -0.28125 0.90625 -0.28125q0.703125 0 1.4375 0.453125l-0.484375 1.296875q-0.515625 -0.296875 -1.03125 -0.296875q-0.453125 0 -0.828125 0.28125q-0.359375 0.2656231 -0.515625 0.7656231q-0.234375 0.75 -0.234375 1.640625l0 4.34375l-1.40625 0zm5.328125 0l0 -8.296873l1.265625 0l0 1.25q0.484375 -0.875 0.890625 -1.15625q0.40625 -0.28125 0.90625 -0.28125q0.703125 0 1.4375 0.453125l-0.484375 1.296875q-0.515625 -0.296875 -1.03125 -0.296875q-0.453125 0 -0.828125 0.28125q-0.359375 0.2656231 -0.515625 0.7656231q-0.234375 0.75 -0.234375 1.640625l0 4.34375l-1.40625 0zm10.75 -1.03125q-0.78125 0.671875 -1.5 0.953125q-0.71875 0.265625 -1.546875 0.265625q-1.375 0 -2.109375 -0.671875q-0.734375 -0.671875 -0.734375 -1.703125q0 -0.609375 0.28125 -1.109375q0.28125 -0.515625 0.71875 -0.8125q0.453125 -0.3125 1.015625 -0.46875q0.421875 -0.109375 1.25 -0.203125q1.703125 -0.203125 2.515625 -0.484375q0 -0.296875 0 -0.375q0 -0.859375 -0.390625 -1.2031231q-0.546875 -0.484375 -1.609375 -0.484375q-0.984375 0 -1.46875 0.359375q-0.46875 0.3437481 -0.6875 1.2187481l-1.375 -0.1875q0.1875 -0.8749981 0.609375 -1.4218731q0.4375 -0.546875 1.25 -0.828125q0.8125 -0.296875 1.875 -0.296875q1.0625 0 1.71875 0.25q0.671875 0.25 0.984375 0.625q0.3125 0.375 0.4375 0.9531231q0.078125 0.359375 0.078125 1.296875l0 1.875q0 1.96875 0.078125 2.484375q0.09375 0.515625 0.359375 1.0l-1.46875 0q-0.21875 -0.4375 -0.28125 -1.03125zm-0.109375 -3.140625q-0.765625 0.3125 -2.296875 0.53125q-0.875 0.125 -1.234375 0.28125q-0.359375 0.15625 -0.5625 0.46875q-0.1875 0.296875 -0.1875 0.65625q0 0.5625 0.421875 0.9375q0.4375 0.375 1.25 0.375q0.8125 0 1.4375 -0.34375q0.640625 -0.359375 0.9375 -0.984375q0.234375 -0.46875 0.234375 -1.40625l0 -0.515625zm3.5390625 7.375l-0.15625 -1.328125q0.453125 0.125 0.796875 0.125q0.46875 0 0.75 -0.15625q0.28125 -0.15625 0.46875 -0.4375q0.125 -0.203125 0.421875 -1.046875q0.046875 -0.109375 0.125 -0.34375l-3.140625 -8.312498l1.515625 0l1.71875 4.796873q0.34375 0.921875 0.609375 1.921875q0.234375 -0.96875 0.578125 -1.890625l1.765625 -4.828123l1.40625 0l-3.15625 8.437498q-0.5 1.375 -0.78125 1.890625q-0.375 0.6875 -0.859375 1.015625q-0.484375 0.328125 -1.15625 0.328125q-0.40625 0 -0.90625 -0.171875z" fill-rule="nonzero"/><path shape-rendering="crispEdges" fill="#cccccc" d="m28.294619 219.26614l82.042 0l0 35.524933l-82.042 0l0 -35.524933z" fill-rule="nonzero"/><path stroke="#9e9e9e" stroke-width="1.0" stroke-linecap="butt" d="m28.294619 218.76746l0 36.52231" fill-rule="nonzero"/><path stroke="#9e9e9e" stroke-width="1.0" stroke-linecap="butt" d="m110.33662 218.76746l0 36.52231" fill-rule="nonzero"/><path stroke="#9e9e9e" stroke-width="1.0" stroke-linecap="butt" d="m192.37862 218.76746l0 36.52231" fill-rule="nonzero"/><path stroke="#9e9e9e" stroke-width="1.0" stroke-linecap="butt" d="m27.79593 219.26614l165.08138 0" fill-rule="nonzero"/><path stroke="#9e9e9e" stroke-width="1.0" stroke-linecap="butt" d="m27.79593 254.79108l165.08138 0" fill-rule="nonzero"/><path fill="#000000" d="m47.091496 243.46614l0 -0.46875q-0.75 0.40625 -1.65625 0.59375q-0.90625 0.203125 -1.640625 0.203125q-1.625 0 -2.625 -0.84375q-1.0 -0.859375 -1.0 -1.890625q0 -1.265625 1.28125 -2.34375q1.28125 -1.078125 3.546875 -1.078125q0.90625 0 2.09375 0.1875l0 -0.46875q0 -0.453125 -0.390625 -0.734375q-0.375 -0.28125 -1.453125 -0.28125q-0.890625 0 -2.3125 0.34375q-0.53125 0.125 -0.8125 0.125q-0.40625 0 -0.6875 -0.28125q-0.28125 -0.296875 -0.28125 -0.734375q0 -0.265625 0.09375 -0.4375q0.109375 -0.1875 0.28125 -0.296875q0.171875 -0.125 0.734375 -0.28125q0.75 -0.203125 1.515625 -0.3125q0.765625 -0.125 1.390625 -0.125q1.875 0 2.90625 0.8125q1.03125 0.796875 1.03125 2.1875l0 4.125l0.328125 0q0.734375 0 1.03125 0.28125q0.3125 0.265625 0.3125 0.71875q0 0.4375 -0.3125 0.71875q-0.296875 0.28125 -1.03125 0.28125l-2.34375 0zm0 -3.578125q-1.1875 -0.234375 -2.203125 -0.234375q-1.234375 0 -2.109375 0.59375q-0.546875 0.375 -0.546875 0.765625q0 0.28125 0.265625 0.453125q0.484375 0.328125 1.34375 0.328125q0.71875 0 1.625 -0.28125q0.921875 -0.28125 1.625 -0.765625l0 -0.859375zm11.220703 -9.375l0 10.953125l2.03125 0q0.71875 0 1.015625 0.28125q0.3125 0.265625 0.3125 0.71875q0 0.4375 -0.3125 0.71875q-0.296875 0.28125 -1.015625 0.28125l-6.046875 0q-0.71875 0 -1.03125 -0.28125q-0.3125 -0.28125 -0.3125 -0.71875q0 -0.453125 0.3125 -0.71875q0.3125 -0.28125 1.03125 -0.28125l2.015625 0l0 -8.359375l-1.78125 0.46875q-0.4375 0.125 -0.640625 0.125q-0.390625 0 -0.671875 -0.296875q-0.265625 -0.3125 -0.265625 -0.75q0 -0.40625 0.203125 -0.625q0.203125 -0.234375 0.859375 -0.40625l4.296875 -1.109375z" fill-rule="nonzero"/><path fill="#000000" d="m130.27411 230.82552l0 7.828125q0.640625 0 0.9375 0.28125q0.296875 0.28125 0.296875 0.71875q0 0.4375 -0.3125 0.734375q-0.296875 0.28125 -0.921875 0.28125l0 0.796875q0.640625 0 0.9375 0.28125q0.296875 0.28125 0.296875 0.71875q0 0.4375 -0.3125 0.71875q-0.296875 0.28125 -1.015625 0.28125l-2.6874924 0q-0.71875 0 -1.03125 -0.28125q-0.3125 -0.28125 -0.3125 -0.71875q0 -0.453125 0.3125 -0.71875q0.3125 -0.28125 1.03125 -0.28125l0.7812424 0l0 -0.796875l-5.4374924 0l0 -1.671875l4.796875 -8.171875l2.6406174 0zm-2.0 7.828125l0 -4.921875l-2.9062424 4.921875l2.9062424 0z" fill-rule="nonzero"/><path fill="#000000" fill-opacity="0.0" d="m20.08924 182.33858l205.95276 0l0 38.771652l-205.95276 0z" fill-rule="evenodd"/><path fill="#000000" d="m30.261114 206.69858l0 -11.453125l1.515625 0l0 10.09375l5.640623 0l0 1.359375l-7.156248 0zm14.460936 -2.671875l1.453125 0.171875q-0.34375 1.28125 -1.28125 1.984375q-0.921875 0.703125 -2.359375 0.703125q-1.828125 0 -2.890625 -1.125q-1.0625 -1.125 -1.0625 -3.140625q0 -2.09375 1.078125 -3.25q1.078125 -1.15625 2.796875 -1.15625q1.65625 0 2.703125 1.140625q1.0625 1.125 1.0625 3.171875q0 0.125 0 0.375l-6.1875 0q0.078125 1.375 0.765625 2.109375q0.703125 0.71875 1.734375 0.71875q0.78125 0 1.328125 -0.40625q0.546875 -0.40625 0.859375 -1.296875zm-4.609375 -2.28125l4.625 0q-0.09375 -1.046875 -0.53125 -1.5625q-0.671875 -0.8125 -1.734375 -0.8125q-0.96875 0 -1.640625 0.65625q-0.65625 0.640625 -0.71875 1.71875zm7.8359375 4.953125l0 -8.296875l1.265625 0l0 1.171875q0.90625 -1.359375 2.640625 -1.359375q0.75 0 1.375 0.265625q0.625 0.265625 0.9375 0.703125q0.3125 0.4375 0.4375 1.046875q0.078125 0.390625 0.078125 1.359375l0 5.109375l-1.40625 0l0 -5.046875q0 -0.859375 -0.171875 -1.28125q-0.15625 -0.4375 -0.578125 -0.6875q-0.40625 -0.25 -0.96875 -0.25q-0.90625 0 -1.5625 0.578125q-0.640625 0.5625 -0.640625 2.15625l0 4.53125l-1.40625 0zm8.6328125 0.6875l1.375 0.203125q0.078125 0.640625 0.46875 0.921875q0.53125 0.390625 1.4375 0.390625q0.96875 0 1.5 -0.390625q0.53125 -0.390625 0.71875 -1.09375q0.109375 -0.421875 0.109375 -1.8125q-0.921875 1.09375 -2.296875 1.09375q-1.71875 0 -2.65625 -1.234375q-0.9375 -1.234375 -0.9375 -2.96875q0 -1.1875 0.421875 -2.1875q0.4375 -1.0 1.25 -1.546875q0.828125 -0.546875 1.921875 -0.546875q1.46875 0 2.421875 1.1875l0 -1.0l1.296875 0l0 7.171875q0 1.9375 -0.390625 2.75q-0.390625 0.8125 -1.25 1.28125q-0.859375 0.46875 -2.109375 0.46875q-1.484375 0 -2.40625 -0.671875q-0.90625 -0.671875 -0.875 -2.015625zm1.171875 -4.984375q0 1.625 0.640625 2.375q0.65625 0.75 1.625 0.75q0.96875 0 1.625 -0.734375q0.65625 -0.75 0.65625 -2.34375q0 -1.53125 -0.671875 -2.296875q-0.671875 -0.78125 -1.625 -0.78125q-0.9375 0 -1.59375 0.765625q-0.65625 0.765625 -0.65625 2.265625zm11.054691 3.03125l0.203125 1.25q-0.59375 0.125 -1.0625 0.125q-0.765625 0 -1.1875 -0.234375q-0.421875 -0.25 -0.59375 -0.640625q-0.171875 -0.40625 -0.171875 -1.671875l0 -4.765625l-1.03125 0l0 -1.09375l1.03125 0l0 -2.0625l1.40625 -0.84375l0 2.90625l1.40625 0l0 1.09375l-1.40625 0l0 4.84375q0 0.609375 0.0625 0.78125q0.078125 0.171875 0.25 0.28125q0.171875 0.09375 0.484375 0.09375q0.234375 0 0.609375 -0.0625zm1.3828125 1.265625l0 -11.453125l1.40625 0l0 4.109375q0.984375 -1.140625 2.484375 -1.140625q0.921875 0 1.59375 0.359375q0.6875 0.359375 0.96875 1.0q0.296875 0.640625 0.296875 1.859375l0 5.265625l-1.40625 0l0 -5.265625q0 -1.046875 -0.453125 -1.53125q-0.453125 -0.484375 -1.296875 -0.484375q-0.625 0 -1.171875 0.328125q-0.546875 0.328125 -0.78125 0.890625q-0.234375 0.546875 -0.234375 1.515625l0 4.546875l-1.40625 0zm12.8125 -4.15625q0 -2.296875 1.28125 -3.40625q1.078125 -0.921875 2.609375 -0.921875q1.71875 0 2.796875 1.125q1.09375 1.109375 1.09375 3.09375q0 1.59375 -0.484375 2.515625q-0.484375 0.921875 -1.40625 1.4375q-0.90625 0.5 -2.0 0.5q-1.734375 0 -2.8125 -1.109375q-1.078125 -1.125 -1.078125 -3.234375zm1.453125 0q0 1.59375 0.6875 2.390625q0.703125 0.796875 1.75 0.796875q1.046875 0 1.734375 -0.796875q0.703125 -0.796875 0.703125 -2.4375q0 -1.53125 -0.703125 -2.328125q-0.6875 -0.796875 -1.734375 -0.796875q-1.046875 0 -1.75 0.796875q-0.6875 0.78125 -0.6875 2.375zm8.3046875 4.15625l0 -7.203125l-1.234375 0l0 -1.09375l1.234375 0l0 -0.890625q0 -0.828125 0.15625 -1.234375q0.203125 -0.546875 0.703125 -0.890625q0.515625 -0.34375 1.4375 -0.34375q0.59375 0 1.3125 0.140625l-0.203125 1.234375q-0.4375 -0.078125 -0.828125 -0.078125q-0.640625 0 -0.90625 0.28125q-0.265625 0.265625 -0.265625 1.015625l0 0.765625l1.609375 0l0 1.09375l-1.609375 0l0 7.203125l-1.40625 0zm13.96875 -1.03125q-0.78125 0.671875 -1.5 0.953125q-0.71875 0.265625 -1.546875 0.265625q-1.375 0 -2.109375 -0.671875q-0.734375 -0.671875 -0.734375 -1.703125q0 -0.609375 0.28125 -1.109375q0.28125 -0.515625 0.71875 -0.8125q0.453125 -0.3125 1.015625 -0.46875q0.421875 -0.109375 1.25 -0.203125q1.703125 -0.203125 2.515625 -0.484375q0 -0.296875 0 -0.375q0 -0.859375 -0.390625 -1.203125q-0.546875 -0.484375 -1.609375 -0.484375q-0.984375 0 -1.46875 0.359375q-0.46875 0.34375 -0.6875 1.21875l-1.375 -0.1875q0.1875 -0.875 0.609375 -1.421875q0.4375 -0.546875 1.25 -0.828125q0.8125 -0.296875 1.875 -0.296875q1.0625 0 1.71875 0.25q0.671875 0.25 0.984375 0.625q0.3125 0.375 0.4375 0.953125q0.078125 0.359375 0.078125 1.296875l0 1.875q0 1.96875 0.078125 2.484375q0.09375 0.515625 0.359375 1.0l-1.46875 0q-0.21875 -0.4375 -0.28125 -1.03125zm-0.109375 -3.140625q-0.765625 0.3125 -2.296875 0.53125q-0.875 0.125 -1.234375 0.28125q-0.359375 0.15625 -0.5625 0.46875q-0.1875 0.296875 -0.1875 0.65625q0 0.5625 0.421875 0.9375q0.4375 0.375 1.25 0.375q0.8125 0 1.4375 -0.34375q0.640625 -0.359375 0.9375 -0.984375q0.234375 -0.46875 0.234375 -1.40625l0 -0.515625zm3.5859375 4.171875l0 -8.296875l1.265625 0l0 1.25q0.484375 -0.875 0.890625 -1.15625q0.40625 -0.28125 0.90625 -0.28125q0.703125 0 1.4375 0.453125l-0.484375 1.296875q-0.515625 -0.296875 -1.03125 -0.296875q-0.453125 0 -0.828125 0.28125q-0.359375 0.265625 -0.515625 0.765625q-0.234375 0.75 -0.234375 1.640625l0 4.34375l-1.40625 0zm5.328125 0l0 -8.296875l1.265625 0l0 1.25q0.484375 -0.875 0.890625 -1.15625q0.40625 -0.28125 0.90625 -0.28125q0.703125 0 1.4375 0.453125l-0.484375 1.296875q-0.515625 -0.296875 -1.03125 -0.296875q-0.453125 0 -0.828125 0.28125q-0.359375 0.265625 -0.515625 0.765625q-0.234375 0.75 -0.234375 1.640625l0 4.34375l-1.40625 0zm10.75 -1.03125q-0.78125 0.671875 -1.5 0.953125q-0.71875 0.265625 -1.546875 0.265625q-1.375 0 -2.109375 -0.671875q-0.734375 -0.671875 -0.734375 -1.703125q0 -0.609375 0.28125 -1.109375q0.28125 -0.515625 0.71875 -0.8125q0.453125 -0.3125 1.015625 -0.46875q0.421875 -0.109375 1.25 -0.203125q1.703125 -0.203125 2.515625 -0.484375q0 -0.296875 0 -0.375q0 -0.859375 -0.390625 -1.203125q-0.546875 -0.484375 -1.609375 -0.484375q-0.984375 0 -1.46875 0.359375q-0.46875 0.34375 -0.6875 1.21875l-1.375 -0.1875q0.1875 -0.875 0.609375 -1.421875q0.4375 -0.546875 1.25 -0.828125q0.8125 -0.296875 1.875 -0.296875q1.0625 0 1.71875 0.25q0.671875 0.25 0.984375 0.625q0.3125 0.375 0.4375 0.953125q0.078125 0.359375 0.078125 1.296875l0 1.875q0 1.96875 0.078125 2.484375q0.09375 0.515625 0.35936737 1.0l-1.4687424 0q-0.21875 -0.4375 -0.28125 -1.03125zm-0.109375 -3.140625q-0.765625 0.3125 -2.296875 0.53125q-0.875 0.125 -1.234375 0.28125q-0.359375 0.15625 -0.5625 0.46875q-0.1875 0.296875 -0.1875 0.65625q0 0.5625 0.421875 0.9375q0.4375 0.375 1.25 0.375q0.8125 0 1.4375 -0.34375q0.640625 -0.359375 0.9375 -0.984375q0.234375 -0.46875 0.234375 -1.40625l0 -0.515625zm3.5390549 7.375l-0.15625 -1.328125q0.453125 0.125 0.796875 0.125q0.46875 0 0.75 -0.15625q0.28125 -0.15625 0.46875 -0.4375q0.125 -0.203125 0.421875 -1.046875q0.046875 -0.109375 0.125 -0.34375l-3.140625 -8.3125l1.515625 0l1.71875 4.796875q0.34375 0.921875 0.609375 1.921875q0.234375 -0.96875 0.578125 -1.890625l1.765625 -4.828125l1.40625 0l-3.15625 8.4375q-0.5 1.375 -0.78125 1.890625q-0.375 0.6875 -0.859375 1.015625q-0.484375 0.328125 -1.15625 0.328125q-0.40625 0 -0.90625 -0.171875z" fill-rule="nonzero"/></g></svg>