<svg version="1.1" viewBox="0.0 0.0 528.0 480.0" fill="none" stroke="none" stroke-linecap="square" stroke-miterlimit="10" xmlns:xlink="http://www.w3.org/1999/xlink" xmlns="http://www.w3.org/2000/svg"><clipPath id="gedcc0b444e_0_20.0"><path d="m0 0l528.0 0l0 480.0l-528.0 0l0 -480.0z" clip-rule="nonzero"/></clipPath><g clip-path="url(#gedcc0b444e_0_20.0)"><path fill="#ffffff" d="m0 0l528.0 0l0 480.0l-528.0 0z" fill-rule="evenodd"/><path fill="#000000" fill-opacity="0.0" d="m28.051697 16.115286l278.51968 0l0 38.771652l-278.51968 0z" fill-rule="evenodd"/><path fill="#000000" d="m37.770447 36.78779l1.4375 -0.125q0.09375 0.859375 0.46875 1.421875q0.375 0.546875 1.15625 0.890625q0.78125 0.328125 1.75 0.328125q0.875 0 1.53125 -0.25q0.671875 -0.265625 0.984375 -0.703125q0.328125 -0.453125 0.328125 -0.984375q0 -0.546875 -0.3125 -0.9375q-0.3125 -0.40625 -1.03125 -0.6875q-0.453125 -0.171875 -2.03125 -0.546875q-1.578125 -0.390625 -2.21875 -0.71875q-0.8125 -0.4375 -1.21875 -1.0625q-0.40625 -0.640625 -0.40625 -1.4375019q0 -0.859375 0.484375 -1.609375q0.5 -0.765625 1.4375 -1.15625q0.953125 -0.390625 2.109375 -0.390625q1.28125 0 2.25 0.421875q0.96875 0.40625 1.484375 1.203125q0.53125 0.796875 0.578125 1.7968769l-1.453125 0.109375q-0.125 -1.0781269 -0.796875 -1.6250019q-0.671875 -0.5625 -2.0 -0.5625q-1.375 0 -2.0 0.5q-0.625 0.5 -0.625 1.21875q0 0.6093769 0.4375 1.0156269q0.4375 0.390625 2.28125 0.8125q1.859375 0.421875 2.546875 0.734375q1.0 0.453125 1.46875 1.171875q0.484375 0.703125 0.484375 1.625q0 0.90625 -0.53125 1.71875q-0.515625 0.8125 -1.5 1.265625q-0.984375 0.453125 -2.203125 0.453125q-1.5625 0 -2.609375 -0.453125q-1.046875 -0.46875 -1.65625 -1.375q-0.59375 -0.90625 -0.625 -2.0625zm16.453125 3.6875l0 -1.21875q-0.96875 1.40625 -2.640625 1.40625q-0.734375 0 -1.375 -0.28125q-0.625 -0.28125 -0.9375 -0.703125q-0.3125 -0.4375 -0.4375 -1.046875q-0.078125 -0.421875 -0.078125 -1.3125l0 -5.140625l1.40625 0l0 4.59375q0 1.109375 0.078125 1.484375q0.140625 0.5625 0.5625 0.875q0.4375 0.3125 1.0625 0.3125q0.640625 0 1.1875 -0.3125q0.5625 -0.328125 0.78125 -0.890625q0.234375 -0.5625 0.234375 -1.625l0 -4.4375l1.40625 0l0 8.296875l-1.25 0zm3.4609375 0l0 -8.296875l1.25 0l0 1.15625q0.390625 -0.609375 1.03125 -0.96875q0.65625 -0.3750019 1.484375 -0.3750019q0.921875 0 1.515625 0.3906269q0.59375 0.375 0.828125 1.0625q0.984375 -1.4531269 2.5625 -1.4531269q1.234375 0 1.890625 0.6875019q0.671875 0.671875 0.671875 2.09375l0 5.703125l-1.390625 0l0 -5.234375q0 -0.84375 -0.140625 -1.203125q-0.140625 -0.375 -0.5 -0.59375q-0.359375 -0.234375 -0.84375 -0.234375q-0.875 0 -1.453125 0.578125q-0.578125 0.578125 -0.578125 1.859375l0 4.828125l-1.40625 0l0 -5.390625q0 -0.9375 -0.34375 -1.40625q-0.34375 -0.46875 -1.125 -0.46875q-0.59375 0 -1.09375 0.3125q-0.5 0.3125 -0.734375 0.921875q-0.21875 0.59375 -0.21875 1.71875l0 4.3125l-1.40625 0zm17.242188 -4.15625q0 -2.296875 1.28125 -3.40625q1.078125 -0.9218769 2.609375 -0.9218769q1.71875 0 2.796875 1.1250019q1.09375 1.109375 1.09375 3.09375q0 1.59375 -0.484375 2.515625q-0.484375 0.921875 -1.40625 1.4375q-0.90625 0.5 -2.0 0.5q-1.734375 0 -2.8125 -1.109375q-1.078125 -1.125 -1.078125 -3.234375zm1.453125 0q0 1.59375 0.6875 2.390625q0.703125 0.796875 1.75 0.796875q1.046875 0 1.734375 -0.796875q0.703125 -0.796875 0.703125 -2.4375q0 -1.53125 -0.703125 -2.328125q-0.6875 -0.796875 -1.734375 -0.796875q-1.046875 0 -1.75 0.796875q-0.6875 0.78125 -0.6875 2.375zm8.3046875 4.15625l0 -7.203125l-1.234375 0l0 -1.09375l1.234375 0l0 -0.8906269q0 -0.828125 0.15625 -1.234375q0.203125 -0.546875 0.703125 -0.890625q0.515625 -0.34375 1.4375 -0.34375q0.59375 0 1.3125 0.140625l-0.203125 1.234375q-0.4375 -0.078125 -0.828125 -0.078125q-0.640625 0 -0.90625 0.28125q-0.265625 0.265625 -0.265625 1.015625l0 0.7656269l1.609375 0l0 1.09375l-1.609375 0l0 7.203125l-1.40625 0zm14.234375 -2.671875l1.453125 0.171875q-0.34375 1.28125 -1.28125 1.984375q-0.921875 0.703125 -2.359375 0.703125q-1.828125 0 -2.890625 -1.125q-1.0625 -1.125 -1.0625 -3.140625q0 -2.09375 1.078125 -3.25q1.078125 -1.1562519 2.796875 -1.1562519q1.65625 0 2.703125 1.1406269q1.0625 1.125 1.0625 3.171875q0 0.125 0 0.375l-6.1875 0q0.078125 1.375 0.765625 2.109375q0.703125 0.71875 1.734375 0.71875q0.78125 0 1.328125 -0.40625q0.546875 -0.40625 0.859375 -1.296875zm-4.609375 -2.28125l4.625 0q-0.09375 -1.046875 -0.53125 -1.5625q-0.671875 -0.8125 -1.734375 -0.8125q-0.96875 0 -1.640625 0.65625q-0.65625 0.640625 -0.71875 1.71875zm7.8046875 4.953125l0 -11.453127l1.40625 0l0 11.453127l-1.40625 0zm9.2578125 -2.671875l1.453125 0.171875q-0.34375 1.28125 -1.28125 1.984375q-0.921875 0.703125 -2.359375 0.703125q-1.828125 0 -2.890625 -1.125q-1.0625 -1.125 -1.0625 -3.140625q0 -2.09375 1.078125 -3.25q1.078125 -1.1562519 2.796875 -1.1562519q1.65625 0 2.703125 1.1406269q1.0625 1.125 1.0625 3.171875q0 0.125 0 0.375l-6.1875 0q0.078125 1.375 0.765625 2.109375q0.703125 0.71875 1.734375 0.71875q0.78125 0 1.328125 -0.40625q0.546875 -0.40625 0.859375 -1.296875zm-4.609375 -2.28125l4.625 0q-0.09375 -1.046875 -0.53125 -1.5625q-0.671875 -0.8125 -1.734375 -0.8125q-0.96875 0 -1.640625 0.65625q-0.65625 0.640625 -0.71875 1.71875zm7.8359375 4.953125l0 -8.296875l1.25 0l0 1.15625q0.390625 -0.609375 1.03125 -0.96875q0.65625 -0.3750019 1.484375 -0.3750019q0.921875 0 1.515625 0.3906269q0.59375 0.375 0.828125 1.0625q0.984375 -1.4531269 2.5625 -1.4531269q1.234375 0 1.890625 0.6875019q0.671875 0.671875 0.671875 2.09375l0 5.703125l-1.390625 0l0 -5.234375q0 -0.84375 -0.140625 -1.203125q-0.140625 -0.375 -0.5 -0.59375q-0.359375 -0.234375 -0.84375 -0.234375q-0.875 0 -1.453125 0.578125q-0.578125 0.578125 -0.578125 1.859375l0 4.828125l-1.40625 0l0 -5.390625q0 -0.9375 -0.34375 -1.40625q-0.34375 -0.46875 -1.125 -0.46875q-0.59375 0 -1.09375 0.3125q-0.5 0.3125 -0.734375 0.921875q-0.21875 0.59375 -0.21875 1.71875l0 4.3125l-1.40625 0zm19.0 -2.671875l1.453125 0.171875q-0.34375 1.28125 -1.28125 1.984375q-0.921875 0.703125 -2.359375 0.703125q-1.828125 0 -2.890625 -1.125q-1.0625 -1.125 -1.0625 -3.140625q0 -2.09375 1.078125 -3.25q1.078125 -1.1562519 2.796875 -1.1562519q1.65625 0 2.703125 1.1406269q1.0625 1.125 1.0625 3.171875q0 0.125 0 0.375l-6.1875 0q0.078125 1.375 0.765625 2.109375q0.703125 0.71875 1.734375 0.71875q0.78125 0 1.328125 -0.40625q0.546875 -0.40625 0.859375 -1.296875zm-4.609375 -2.28125l4.625 0q-0.09375 -1.046875 -0.53125 -1.5625q-0.671875 -0.8125 -1.734375 -0.8125q-0.96875 0 -1.640625 0.65625q-0.65625 0.640625 -0.71875 1.71875zm7.8359375 4.953125l0 -8.296875l1.265625 0l0 1.171875q0.90625 -1.3593769 2.640625 -1.3593769q0.75 0 1.375 0.2656269q0.625 0.265625 0.9375 0.703125q0.3125 0.4375 0.4375 1.046875q0.078125 0.390625 0.078125 1.359375l0 5.109375l-1.40625 0l0 -5.046875q0 -0.859375 -0.171875 -1.28125q-0.15625 -0.4375 -0.578125 -0.6875q-0.40625 -0.25 -0.96875 -0.25q-0.90625 0 -1.5625 0.578125q-0.640625 0.5625 -0.640625 2.15625l0 4.53125l-1.40625 0zm11.9609375 -1.265625l0.203125 1.25q-0.59375 0.125 -1.0625 0.125q-0.765625 0 -1.1875 -0.234375q-0.421875 -0.25 -0.59375 -0.640625q-0.171875 -0.40625 -0.171875 -1.671875l0 -4.765625l-1.03125 0l0 -1.09375l1.03125 0l0 -2.062502l1.40625 -0.84375l0 2.906252l1.40625 0l0 1.09375l-1.40625 0l0 4.84375q0 0.609375 0.0625 0.78125q0.078125 0.171875 0.25 0.28125q0.171875 0.09375 0.484375 0.09375q0.234375 0 0.609375 -0.0625zm0.8203125 -1.21875l1.390625 -0.21875q0.109375 0.84375 0.640625 1.296875q0.546875 0.4375 1.5 0.4375q0.96875 0 1.4375 -0.390625q0.46875 -0.40625 0.46875 -0.9375q0 -0.46875 -0.40625 -0.75q-0.296875 -0.1875 -1.4375 -0.46875q-1.546875 -0.390625 -2.15625 -0.671875q-0.59375 -0.296875 -0.90625 -0.796875q-0.296875 -0.5 -0.296875 -1.109375q0 -0.5625 0.25 -1.03125q0.25 -0.46875 0.6875 -0.78125q0.328125 -0.25 0.890625 -0.40625q0.578125 -0.1718769 1.21875 -0.1718769q0.984375 0 1.71875 0.2812519q0.734375 0.28125 1.078125 0.765625q0.359375 0.46875 0.5 1.28125l-1.375 0.1875q-0.09375 -0.640625 -0.546875 -1.0q-0.453125 -0.359375 -1.265625 -0.359375q-0.96875 0 -1.390625 0.328125q-0.40625 0.3125 -0.40625 0.734375q0 0.28125 0.171875 0.5q0.171875 0.21875 0.53125 0.375q0.21875 0.078125 1.25 0.359375q1.484375 0.390625 2.078125 0.65625q0.59375 0.25 0.921875 0.734375q0.34375 0.484375 0.34375 1.203125q0 0.703125 -0.421875 1.328125q-0.40625 0.609375 -1.1875 0.953125q-0.765625 0.34375 -1.734375 0.34375q-1.625 0 -2.46875 -0.671875q-0.84375 -0.671875 -1.078125 -2.0zm13.0078125 -7.359377l0 -1.609375l1.40625 0l0 1.609375l-1.40625 0zm0 9.843752l0 -8.296875l1.40625 0l0 8.296875l-1.40625 0zm3.5546875 0l0 -8.296875l1.265625 0l0 1.171875q0.90625 -1.3593769 2.640625 -1.3593769q0.75 0 1.375 0.2656269q0.625 0.265625 0.9375 0.703125q0.3125 0.4375 0.4375 1.046875q0.078125 0.390625 0.078125 1.359375l0 5.109375l-1.40625 0l0 -5.046875q0 -0.859375 -0.171875 -1.28125q-0.15625 -0.4375 -0.578125 -0.6875q-0.40625 -0.25 -0.96875 -0.25q-0.90625 0 -1.5625 0.578125q-0.640625 0.5625 -0.640625 2.15625l0 4.53125l-1.40625 0zm16.40625 -1.265625l0.203125 1.25q-0.59375 0.125 -1.0625 0.125q-0.765625 0 -1.1875 -0.234375q-0.421875 -0.25 -0.59375 -0.640625q-0.171875 -0.40625 -0.171875 -1.671875l0 -4.765625l-1.03125 0l0 -1.09375l1.03125 0l0 -2.062502l1.40625 -0.84375l0 2.906252l1.40625 0l0 1.09375l-1.40625 0l0 4.84375q0 0.609375 0.0625 0.78125q0.078125 0.171875 0.25 0.28125q0.171875 0.09375 0.484375 0.09375q0.234375 0 0.609375 -0.0625zm1.3828125 1.265625l0 -11.453127l1.40625 0l0 4.109377q0.984375 -1.1406269 2.484375 -1.1406269q0.921875 0 1.59375 0.3593769q0.6875 0.359375 0.96875 1.0q0.296875 0.640625 0.296875 1.859375l0 5.265625l-1.40625 0l0 -5.265625q0 -1.046875 -0.453125 -1.53125q-0.453125 -0.484375 -1.296875 -0.484375q-0.625 0 -1.171875 0.328125q-0.546875 0.328125 -0.78125 0.890625q-0.234375 0.546875 -0.234375 1.515625l0 4.546875l-1.40625 0zm14.5703125 -2.671875l1.453125 0.171875q-0.34375 1.28125 -1.28125 1.984375q-0.921875 0.703125 -2.359375 0.703125q-1.828125 0 -2.890625 -1.125q-1.0625 -1.125 -1.0625 -3.140625q0 -2.09375 1.078125 -3.25q1.078125 -1.1562519 2.796875 -1.1562519q1.65625 0 2.703125 1.1406269q1.0625 1.125 1.0625 3.171875q0 0.125 0 0.375l-6.1875 0q0.078125 1.375 0.765625 2.109375q0.703125 0.71875 1.734375 0.71875q0.78125 0 1.328125 -0.40625q0.546875 -0.40625 0.859375 -1.296875zm-4.609375 -2.28125l4.625 0q-0.09375 -1.046875 -0.53125 -1.5625q-0.671875 -0.8125 -1.734375 -0.8125q-0.96875 0 -1.640625 0.65625q-0.65625 0.640625 -0.71875 1.71875zm11.75 0.796875q0 -2.296875 1.28125 -3.40625q1.078125 -0.9218769 2.609375 -0.9218769q1.71875 0 2.796875 1.1250019q1.09375 1.109375 1.09375 3.09375q0 1.59375 -0.484375 2.515625q-0.484375 0.921875 -1.40625 1.4375q-0.90625 0.5 -2.0 0.5q-1.734375 0 -2.8125 -1.109375q-1.078125 -1.125 -1.078125 -3.234375zm1.453125 0q0 1.59375 0.6875 2.390625q0.703125 0.796875 1.75 0.796875q1.046875 0 1.734375 -0.796875q0.703125 -0.796875 0.703125 -2.4375q0 -1.53125 -0.703125 -2.328125q-0.6875 -0.796875 -1.734375 -0.796875q-1.046875 0 -1.75 0.796875q-0.6875 0.78125 -0.6875 2.375zm13.4140625 4.15625l0 -1.21875q-0.96875 1.40625 -2.640625 1.40625q-0.734375 0 -1.375 -0.28125q-0.625 -0.28125 -0.9375 -0.703125q-0.3125 -0.4375 -0.4375 -1.046875q-0.078125 -0.421875 -0.078125 -1.3125l0 -5.140625l1.40625 0l0 4.59375q0 1.109375 0.078125 1.484375q0.140625 0.5625 0.5625 0.875q0.4375 0.3125 1.0625 0.3125q0.640625 0 1.1875 -0.3125q0.5625 -0.328125 0.78125 -0.890625q0.234375 -0.5625 0.234375 -1.625l0 -4.4375l1.40625 0l0 8.296875l-1.25 0zm6.5234375 -1.265625l0.203125 1.25q-0.59375 0.125 -1.0625 0.125q-0.765625 0 -1.1875 -0.234375q-0.421875 -0.25 -0.59375 -0.640625q-0.171875 -0.40625 -0.171875 -1.671875l0 -4.765625l-1.03125 0l0 -1.09375l1.03125 0l0 -2.062502l1.40625 -0.84375l0 2.906252l1.40625 0l0 1.09375l-1.40625 0l0 4.84375q0 0.609375 0.0625 0.78125q0.078125 0.171875 0.25 0.28125q0.171875 0.09375 0.484375 0.09375q0.234375 0 0.609375 -0.0625zm1.3828125 4.453125l0 -11.484375l1.28125 0l0 1.078125q0.453125 -0.640625 1.015625 -0.953125q0.578125 -0.3125019 1.390625 -0.3125019q1.0625 0 1.875 0.5468769q0.8125 0.546875 1.21875 1.546875q0.421875 0.984375 0.421875 2.171875q0 1.28125 -0.46875 2.296875q-0.453125 1.015625 -1.328125 1.5625q-0.859375 0.546875 -1.828125 0.546875q-0.703125 0 -1.265625 -0.296875q-0.546875 -0.296875 -0.90625 -0.75l0 4.046875l-1.40625 0zm1.265625 -7.296875q0 1.609375 0.640625 2.375q0.65625 0.765625 1.578125 0.765625q0.9375 0 1.609375 -0.796875q0.671875 -0.796875 0.671875 -2.453125q0 -1.59375 -0.65625 -2.375q-0.65625 -0.796875 -1.5625 -0.796875q-0.890625 0 -1.59375 0.84375q-0.6875 0.84375 -0.6875 2.4375zm13.0703125 4.109375l0 -1.21875q-0.96875 1.40625 -2.640625 1.40625q-0.734375 0 -1.375 -0.28125q-0.625 -0.28125 -0.9375 -0.703125q-0.3125 -0.4375 -0.4375 -1.046875q-0.078125 -0.421875 -0.078125 -1.3125l0 -5.140625l1.40625 0l0 4.59375q0 1.109375 0.078125 1.484375q0.140625 0.5625 0.5625 0.875q0.4375 0.3125 1.0625 0.3125q0.640625 0 1.1875 -0.3125q0.5625 -0.328125 0.78125 -0.890625q0.234375 -0.5625 0.234375 -1.625l0 -4.4375l1.40625 0l0 8.296875l-1.25 0zm6.5234375 -1.265625l0.203125 1.25q-0.59375 0.125 -1.0625 0.125q-0.765625 0 -1.1875 -0.234375q-0.421875 -0.25 -0.59375 -0.640625q-0.171875 -0.40625 -0.171875 -1.671875l0 -4.765625l-1.03125 0l0 -1.09375l1.03125 0l0 -2.062502l1.40625 -0.84375l0 2.906252l1.40625 0l0 1.09375l-1.40625 0l0 4.84375q0 0.609375 0.0625 0.78125q0.078125 0.171875 0.25 0.28125q0.171875 0.09375 0.484375 0.09375q0.234375 0 0.609375 -0.0625zm11.234375 0.234375q-0.78125 0.671875 -1.5 0.953125q-0.71875 0.265625 -1.546875 0.265625q-1.375 0 -2.109375 -0.671875q-0.734375 -0.671875 -0.734375 -1.703125q0 -0.609375 0.28125 -1.109375q0.28125 -0.515625 0.71875 -0.8125q0.453125 -0.3125 1.015625 -0.46875q0.421875 -0.109375 1.25 -0.203125q1.703125 -0.203125 2.515625 -0.484375q0 -0.296875 0 -0.375q0 -0.859375 -0.390625 -1.203125q-0.546875 -0.484375 -1.609375 -0.484375q-0.984375 0 -1.46875 0.359375q-0.46875 0.34375 -0.6875 1.21875l-1.375 -0.1875q0.1875 -0.875 0.609375 -1.421875q0.4375 -0.546875 1.25 -0.828125q0.8125 -0.2968769 1.875 -0.2968769q1.0625 0 1.71875 0.2500019q0.671875 0.25 0.984375 0.625q0.3125 0.375 0.4375 0.953125q0.078125 0.359375 0.078125 1.296875l0 1.875q0 1.96875 0.078125 2.484375q0.09375 0.515625 0.359375 1.0l-1.46875 0q-0.21875 -0.4375 -0.28125 -1.03125zm-0.109375 -3.140625q-0.765625 0.3125 -2.296875 0.53125q-0.875 0.125 -1.234375 0.28125q-0.359375 0.15625 -0.5625 0.46875q-0.1875 0.296875 -0.1875 0.65625q0 0.5625 0.421875 0.9375q0.4375 0.375 1.25 0.375q0.8125 0 1.4375 -0.34375q0.640625 -0.359375 0.9375 -0.984375q0.234375 -0.46875 0.234375 -1.40625l0 -0.515625zm3.5859375 4.171875l0 -8.296875l1.265625 0l0 1.25q0.484375 -0.875 0.890625 -1.15625q0.40625 -0.2812519 0.90625 -0.2812519q0.703125 0 1.4375 0.4531269l-0.484375 1.296875q-0.515625 -0.296875 -1.03125 -0.296875q-0.453125 0 -0.828125 0.28125q-0.359375 0.265625 -0.515625 0.765625q-0.234375 0.75 -0.234375 1.640625l0 4.34375l-1.40625 0zm5.328125 0l0 -8.296875l1.265625 0l0 1.25q0.484375 -0.875 0.890625 -1.15625q0.40625 -0.2812519 0.90625 -0.2812519q0.703125 0 1.4375 0.4531269l-0.484375 1.296875q-0.515625 -0.296875 -1.03125 -0.296875q-0.453125 0 -0.828125 0.28125q-0.359375 0.265625 -0.515625 0.765625q-0.234375 0.75 -0.234375 1.640625l0 4.34375l-1.40625 0zm10.75 -1.03125q-0.78125 0.671875 -1.5 0.953125q-0.71875 0.265625 -1.546875 0.265625q-1.375 0 -2.109375 -0.671875q-0.734375 -0.671875 -0.734375 -1.703125q0 -0.609375 0.28125 -1.109375q0.28125 -0.515625 0.71875 -0.8125q0.453125 -0.3125 1.015625 -0.46875q0.421875 -0.109375 1.25 -0.203125q1.703125 -0.203125 2.515625 -0.484375q0 -0.296875 0 -0.375q0 -0.859375 -0.390625 -1.203125q-0.546875 -0.484375 -1.609375 -0.484375q-0.984375 0 -1.46875 0.359375q-0.46875 0.34375 -0.6875 1.21875l-1.375 -0.1875q0.1875 -0.875 0.609375 -1.421875q0.4375 -0.546875 1.25 -0.828125q0.8125 -0.2968769 1.875 -0.2968769q1.0625 0 1.71875 0.2500019q0.671875 0.25 0.984375 0.625q0.3125 0.375 0.4375 0.953125q0.078125 0.359375 0.078125 1.296875l0 1.875q0 1.96875 0.078125 2.484375q0.09375 0.515625 0.359375 1.0l-1.46875 0q-0.21875 -0.4375 -0.28125 -1.03125zm-0.109375 -3.140625q-0.765625 0.3125 -2.296875 0.53125q-0.875 0.125 -1.234375 0.28125q-0.359375 0.15625 -0.5625 0.46875q-0.1875 0.296875 -0.1875 0.65625q0 0.5625 0.421875 0.9375q0.4375 0.375 1.25 0.375q0.8125 0 1.4375 -0.34375q0.640625 -0.359375 0.9375 -0.984375q0.234375 -0.46875 0.234375 -1.40625l0 -0.515625zm3.5390625 7.375l-0.15625 -1.328125q0.453125 0.125 0.796875 0.125q0.46875 0 0.75 -0.15625q0.28125 -0.15625 0.46875 -0.4375q0.125 -0.203125 0.421875 -1.046875q0.046875 -0.109375 0.125 -0.34375l-3.140625 -8.3125l1.515625 0l1.71875 4.796875q0.34375 0.921875 0.609375 1.921875q0.234375 -0.96875 0.578125 -1.890625l1.765625 -4.828125l1.40625 0l-3.15625 8.4375q-0.5 1.375 -0.78125 1.890625q-0.375 0.6875 -0.859375 1.015625q-0.484375 0.328125 -1.15625 0.328125q-0.40625 0 -0.90625 -0.171875z" fill-rule="nonzero"/><path shape-rendering="crispEdges" fill="#cccccc" d="m38.422573 49.042847l75.52493 0l0 45.433067l-75.52493 0l0 -45.433067z" fill-rule="nonzero"/><path stroke="#9e9e9e" stroke-width="1.0" stroke-linecap="butt" d="m38.422573 48.54416l0 46.430443" fill-rule="nonzero"/><path stroke="#9e9e9e" stroke-width="1.0" stroke-linecap="butt" d="m113.94751 48.54416l0 46.430443" fill-rule="nonzero"/><path stroke="#9e9e9e" stroke-width="1.0" stroke-linecap="butt" d="m189.47244 48.54416l0 46.430443" fill-rule="nonzero"/><path stroke="#9e9e9e" stroke-width="1.0" stroke-linecap="butt" d="m37.923885 49.042847l152.04724 0" fill-rule="nonzero"/><path stroke="#9e9e9e" stroke-width="1.0" stroke-linecap="butt" d="m37.923885 94.475914l152.04724 0" fill-rule="nonzero"/><path fill="#000000" d="m54.703823 77.962845l0 -0.4375q-0.703125 0.375 -1.5625 0.5625q-0.84375 0.1875 -1.53125 0.1875q-1.5 0 -2.4375 -0.796875q-0.9375 -0.796875 -0.9375 -1.765625q0 -1.171875 1.1875 -2.171875q1.203125 -1.015625 3.3125 -1.015625q0.859375 0 1.96875 0.1875l0 -0.453125q0 -0.421875 -0.359375 -0.6875q-0.359375 -0.265625 -1.375 -0.265625q-0.828125 0 -2.15625 0.328125q-0.484375 0.125 -0.765625 0.125q-0.359375 0 -0.625 -0.265625q-0.265625 -0.265625 -0.265625 -0.6875q0 -0.234375 0.09375 -0.40625q0.09375 -0.1875 0.25 -0.28125q0.171875 -0.109375 0.6875 -0.25q0.703125 -0.203125 1.421875 -0.3125q0.71875 -0.109375 1.296875 -0.109375q1.734375 0 2.6875 0.75q0.96875 0.75 0.96875 2.046875l0 3.84375l0.328125 0q0.671875 0 0.953125 0.265625q0.296875 0.265625 0.296875 0.6875q0 0.40625 -0.296875 0.671875q-0.28125 0.25 -0.953125 0.25l-2.1875 0zm0 -3.34375q-1.125 -0.21875 -2.078125 -0.21875q-1.125 0 -1.953125 0.5625q-0.515625 0.34375 -0.515625 0.71875q0 0.265625 0.25 0.421875q0.453125 0.296875 1.25 0.296875q0.671875 0 1.515625 -0.265625q0.859375 -0.265625 1.53125 -0.71875l0 -0.796875zm13.586193 -3.59375l0 2.0625q0 1.8125 -1.0625 3.484375q-1.046875 1.65625 -3.0 1.65625q-1.1249962 0 -1.9062462 -0.484375q-0.78125 -0.5 -1.484375 -1.828125q-0.6875 -1.34375 -0.6875 -2.828125l0 -2.0625q0 -1.8125 1.046875 -3.484375q1.046875 -1.671875 2.9999962 -1.671875q1.125 0 1.90625 0.5q0.78125 0.484375 1.484375 1.828125q0.703125 1.328125 0.703125 2.828125zm-1.875 0q0 -1.515625 -0.84375 -2.65625q-0.484375 -0.625 -1.359375 -0.625q-0.8437462 0 -1.3906212 0.6875q-0.8125 1.046875 -0.8125 2.59375l0 2.0625q0 1.515625 0.859375 2.65625q0.484375 0.625 1.3593712 0.625q0.84375 0 1.375 -0.6875q0.8125 -1.046875 0.8125 -2.59375l0 -2.0625z" fill-rule="nonzero"/><path fill="#000000" d="m129.49438 65.869095l0 10.21875l1.890625 0q0.671875 0 0.953125 0.265625q0.296875 0.265625 0.296875 0.6875q0 0.40625 -0.296875 0.671875q-0.28125 0.25 -0.953125 0.25l-5.640625 0q-0.671875 0 -0.96875 -0.25q-0.28125 -0.265625 -0.28125 -0.6875q0 -0.40625 0.28125 -0.671875q0.296875 -0.265625 0.96875 -0.265625l1.890625 0l0 -7.78125l-1.671875 0.4375q-0.40625 0.109375 -0.609375 0.109375q-0.34375 0 -0.609375 -0.28125q-0.25 -0.28125 -0.25 -0.6875q0 -0.375 0.1875 -0.59375q0.1875 -0.21875 0.796875 -0.375l4.015625 -1.046875zm12.976822 0.3125l0 7.296875q0.59375 0 0.875 0.265625q0.28125 0.25 0.28125 0.671875q0 0.40625 -0.28125 0.671875q-0.28125 0.265625 -0.875 0.265625l0 0.734375q0.59375 0 0.875 0.265625q0.28125 0.265625 0.28125 0.6875q0 0.40625 -0.28125 0.671875q-0.28125 0.25 -0.953125 0.25l-2.515625 0q-0.671875 0 -0.96875 -0.25q-0.28125 -0.265625 -0.28125 -0.6875q0 -0.40625 0.28125 -0.671875q0.296875 -0.265625 0.96875 -0.265625l0.734375 0l0 -0.734375l-5.078125 0l0 -1.5625l4.46875 -7.609375l2.46875 0zm-1.859375 7.296875l0 -4.59375l-2.703125 4.59375l2.703125 0zm13.054947 -7.296875l0 7.296875q0.59375 0 0.875 0.265625q0.28125 0.25 0.28125 0.671875q0 0.40625 -0.28125 0.671875q-0.28125 0.265625 -0.875 0.265625l0 0.734375q0.59375 0 0.875 0.265625q0.28125 0.265625 0.28125 0.6875q0 0.40625 -0.28125 0.671875q-0.28125 0.25 -0.953125 0.25l-2.515625 0q-0.671875 0 -0.96875 -0.25q-0.28125 -0.265625 -0.28125 -0.6875q0 -0.40625 0.28125 -0.671875q0.296875 -0.265625 0.96875 -0.265625l0.734375 0l0 -0.734375l-5.078125 0l0 -1.5625l4.46875 -7.609375l2.46875 0zm-1.859375 7.296875l0 -4.59375l-2.703125 4.59375l2.703125 0z" fill-rule="nonzero"/><path shape-rendering="crispEdges" fill="#cccccc" d="m315.6929 49.043045l75.52493 0l0 45.433067l-75.52493 0l0 -45.433067z" fill-rule="nonzero"/><path shape-rendering="crispEdges" fill="#cccccc" d="m315.6929 94.47611l75.52493 0l0 45.433067l-75.52493 0l0 -45.433067z" fill-rule="nonzero"/><path shape-rendering="crispEdges" fill="#cccccc" d="m315.6929 139.90918l75.52493 0l0 45.433075l-75.52493 0l0 -45.433075z" fill-rule="nonzero"/><path shape-rendering="crispEdges" fill="#cccccc" d="m315.6929 185.34225l75.52493 0l0 45.433075l-75.52493 0l0 -45.433075z" fill-rule="nonzero"/><path shape-rendering="crispEdges" fill="#cccccc" d="m315.6929 230.77533l75.52493 0l0 45.433075l-75.52493 0l0 -45.433075z" fill-rule="nonzero"/><path shape-rendering="crispEdges" fill="#cccccc" d="m315.6929 276.2084l75.52493 0l0 45.433075l-75.52493 0l0 -45.433075z" fill-rule="nonzero"/><path shape-rendering="crispEdges" fill="#cccccc" d="m315.6929 321.64148l75.52493 0l0 45.433075l-75.52493 0l0 -45.433075z" fill-rule="nonzero"/><path shape-rendering="crispEdges" fill="#cccccc" d="m315.6929 367.07455l75.52493 0l0 45.433044l-75.52493 0l0 -45.433044z" fill-rule="nonzero"/><path shape-rendering="crispEdges" fill="#cccccc" d="m315.6929 412.5076l75.52493 0l0 45.433075l-75.52493 0l0 -45.433075z" fill-rule="nonzero"/><path stroke="#9e9e9e" stroke-width="1.0" stroke-linecap="butt" d="m315.6929 48.544357l0 409.89502" fill-rule="nonzero"/><path stroke="#9e9e9e" stroke-width="1.0" stroke-linecap="butt" d="m391.21783 48.544357l0 409.89502" fill-rule="nonzero"/><path stroke="#9e9e9e" stroke-width="1.0" stroke-linecap="butt" d="m466.74277 48.544357l0 409.89502" fill-rule="nonzero"/><path stroke="#9e9e9e" stroke-width="1.0" stroke-linecap="butt" d="m315.1942 49.043045l152.04724 0" fill-rule="nonzero"/><path stroke="#9e9e9e" stroke-width="1.0" stroke-linecap="butt" d="m315.1942 94.47611l152.04724 0" fill-rule="nonzero"/><path stroke="#9e9e9e" stroke-width="1.0" stroke-linecap="butt" d="m315.1942 139.90918l152.04724 0" fill-rule="nonzero"/><path stroke="#9e9e9e" stroke-width="1.0" stroke-linecap="butt" d="m315.1942 185.34225l152.04724 0" fill-rule="nonzero"/><path stroke="#9e9e9e" stroke-width="1.0" stroke-linecap="butt" d="m315.1942 230.77533l152.04724 0" fill-rule="nonzero"/><path stroke="#9e9e9e" stroke-width="1.0" stroke-linecap="butt" d="m315.1942 276.2084l152.04724 0" fill-rule="nonzero"/><path stroke="#9e9e9e" stroke-width="1.0" stroke-linecap="butt" d="m315.1942 321.64148l152.04724 0" fill-rule="nonzero"/><path stroke="#9e9e9e" stroke-width="1.0" stroke-linecap="butt" d="m315.1942 367.07455l152.04724 0" fill-rule="nonzero"/><path stroke="#9e9e9e" stroke-width="1.0" stroke-linecap="butt" d="m315.1942 412.5076l152.04724 0" fill-rule="nonzero"/><path stroke="#9e9e9e" stroke-width="1.0" stroke-linecap="butt" d="m315.1942 457.94067l152.04724 0" fill-rule="nonzero"/><path fill="#000000" d="m334.36478 71.02554l0 2.0625q0 1.8125 -1.0625 3.484375q-1.046875 1.65625 -3.0 1.65625q-1.125 0 -1.90625 -0.484375q-0.78125 -0.5 -1.484375 -1.828125q-0.6875 -1.34375 -0.6875 -2.828125l0 -2.0625q0 -1.8125 1.046875 -3.484375q1.046875 -1.671875 3.0 -1.671875q1.125 0 1.90625 0.5q0.78125 0.484375 1.484375 1.828125q0.703125 1.328125 0.703125 2.828125zm-1.875 0q0 -1.515625 -0.84375 -2.65625q-0.484375 -0.625 -1.359375 -0.625q-0.84375 0 -1.390625 0.6875q-0.8125 1.046875 -0.8125 2.59375l0 2.0625q0 1.515625 0.859375 2.65625q0.484375 0.625 1.359375 0.625q0.84375 0 1.375 -0.6875q0.8125 -1.046875 0.8125 -2.59375l0 -2.0625zm10.398712 2.640625l2.828125 2.421875q0.515625 0.03125 0.765625 0.296875q0.25 0.25 0.25 0.65625q0 0.40625 -0.28125 0.671875q-0.28125 0.25 -0.96875 0.25l-2.109375 0q-0.671875 0 -0.96875 -0.25q-0.28125 -0.265625 -0.28125 -0.703125q0 -0.328125 0.203125 -0.578125q0.203125 -0.25 0.5625 -0.34375l-1.390625 -1.1875l-1.421875 1.1875q0.421875 0.109375 0.609375 0.34375q0.1875 0.234375 0.1875 0.578125q0 0.4375 -0.28125 0.703125q-0.28125 0.25 -0.953125 0.25l-2.109375 0q-0.671875 0 -0.96875 -0.25q-0.28125 -0.265625 -0.28125 -0.6875q0 -0.390625 0.25 -0.640625q0.265625 -0.265625 0.765625 -0.296875l2.78125 -2.4375l-2.453125 -2.09375q-0.484375 -0.03125 -0.734375 -0.28125q-0.25 -0.265625 -0.25 -0.65625q0 -0.40625 0.28125 -0.65625q0.296875 -0.265625 0.96875 -0.265625l1.75 0q0.671875 0 0.953125 0.265625q0.28125 0.25 0.28125 0.65625q0 0.53125 -0.5 0.859375l1.125 0.953125l1.109375 -0.96875q-0.5 -0.34375 -0.5 -0.8125q0 -0.4375 0.28125 -0.6875q0.296875 -0.265625 0.96875 -0.265625l1.734375 0q0.671875 0 0.953125 0.265625q0.296875 0.25 0.296875 0.671875q0 0.375 -0.25 0.640625q-0.25 0.25 -0.75 0.28125l-2.453125 2.109375zm12.445557 -1.671875q0.71875 0.5625 1.078125 1.265625q0.359375 0.703125 0.359375 1.546875q0 0.9375 -0.46875 1.734375q-0.453125 0.78125 -1.4375 1.234375q-0.984375 0.453125 -2.1875 0.453125q-1.203125 0 -2.171875 -0.453125q-0.96875 -0.453125 -1.421875 -1.234375q-0.453125 -0.796875 -0.453125 -1.734375q0 -0.84375 0.359375 -1.546875q0.359375 -0.703125 1.078125 -1.265625q-0.640625 -0.578125 -0.953125 -1.234375q-0.3125 -0.65625 -0.3125 -1.390625q0 -1.421875 1.09375 -2.453125q1.09375 -1.046875 2.796875 -1.046875q1.71875 0 2.8125 1.046875q1.09375 1.03125 1.09375 2.453125q0 0.734375 -0.328125 1.390625q-0.3125 0.65625 -0.9375 1.234375zm-0.65625 -2.578125q0 -0.703125 -0.546875 -1.1875q-0.53125 -0.484375 -1.453125 -0.484375q-0.921875 0 -1.46875 0.484375q-0.546875 0.484375 -0.546875 1.1875q0 0.6875 0.546875 1.1875q0.546875 0.484375 1.46875 0.484375q0.921875 0 1.453125 -0.484375q0.546875 -0.5 0.546875 -1.1875zm0.21875 5.484375q0 -0.734375 -0.640625 -1.328125q-0.625 -0.59375 -1.5625 -0.59375q-0.9375 0 -1.578125 0.59375q-0.625 0.59375 -0.625 1.34375q0 0.59375 0.546875 1.03125q0.546875 0.421875 1.65625 0.421875q1.125 0 1.65625 -0.421875q0.546875 -0.4375 0.546875 -1.046875zm13.054962 -3.875l0 2.0625q0 1.8125 -1.0625 3.484375q-1.046875 1.65625 -3.0 1.65625q-1.125 0 -1.90625 -0.484375q-0.78125 -0.5 -1.484375 -1.828125q-0.6875 -1.34375 -0.6875 -2.828125l0 -2.0625q0 -1.8125 1.046875 -3.484375q1.046875 -1.671875 3.0 -1.671875q1.125 0 1.90625 0.5q0.78125 0.484375 1.484375 1.828125q0.703125 1.328125 0.703125 2.828125zm-1.875 0q0 -1.515625 -0.84375 -2.65625q-0.484375 -0.625 -1.359375 -0.625q-0.84375 0 -1.390625 0.6875q-0.8125 1.046875 -0.8125 2.59375l0 2.0625q0 1.515625 0.859375 2.65625q0.484375 0.625 1.359375 0.625q0.84375 0 1.375 -0.6875q0.8125 -1.046875 0.8125 -2.59375l0 -2.0625z" fill-rule="nonzero"/><path fill="#000000" d="m409.8897 71.02554l0 2.0625q0 1.8125 -1.0625 3.484375q-1.046875 1.65625 -3.0 1.65625q-1.125 0 -1.90625 -0.484375q-0.78125 -0.5 -1.484375 -1.828125q-0.6875 -1.34375 -0.6875 -2.828125l0 -2.0625q0 -1.8125 1.046875 -3.484375q1.046875 -1.671875 3.0 -1.671875q1.125 0 1.90625 0.5q0.78125 0.484375 1.484375 1.828125q0.703125 1.328125 0.703125 2.828125zm-1.875 0q0 -1.515625 -0.84375 -2.65625q-0.484375 -0.625 -1.359375 -0.625q-0.84375 0 -1.390625 0.6875q-0.8125 1.046875 -0.8125 2.59375l0 2.0625q0 1.515625 0.859375 2.65625q0.484375 0.625 1.359375 0.625q0.84375 0 1.375 -0.6875q0.8125 -1.046875 0.8125 -2.59375l0 -2.0625z" fill-rule="nonzero"/><path fill="#000000" d="m334.36478 116.45861l0 2.0625q0 1.8125 -1.0625 3.484375q-1.046875 1.65625 -3.0 1.65625q-1.125 0 -1.90625 -0.484375q-0.78125 -0.5 -1.484375 -1.828125q-0.6875 -1.34375 -0.6875 -2.828125l0 -2.0625q0 -1.8125 1.046875 -3.484375q1.046875 -1.671875 3.0 -1.671875q1.125 0 1.90625 0.5q0.78125 0.484375 1.484375 1.828125q0.703125 1.328125 0.703125 2.828125zm-1.875 0q0 -1.515625 -0.84375 -2.65625q-0.484375 -0.625 -1.359375 -0.625q-0.84375 0 -1.390625 0.6875q-0.8125 1.046875 -0.8125 2.59375l0 2.0625q0 1.515625 0.859375 2.65625q0.484375 0.625 1.359375 0.625q0.84375 0 1.375 -0.6875q0.8125 -1.046875 0.8125 -2.59375l0 -2.0625zm10.398712 2.640625l2.828125 2.421875q0.515625 0.03125 0.765625 0.296875q0.25 0.25 0.25 0.65625q0 0.40625 -0.28125 0.671875q-0.28125 0.25 -0.96875 0.25l-2.109375 0q-0.671875 0 -0.96875 -0.25q-0.28125 -0.265625 -0.28125 -0.703125q0 -0.328125 0.203125 -0.578125q0.203125 -0.25 0.5625 -0.34375l-1.390625 -1.1875l-1.421875 1.1875q0.421875 0.109375 0.609375 0.34375q0.1875 0.234375 0.1875 0.578125q0 0.4375 -0.28125 0.703125q-0.28125 0.25 -0.953125 0.25l-2.109375 0q-0.671875 0 -0.96875 -0.25q-0.28125 -0.265625 -0.28125 -0.6875q0 -0.390625 0.25 -0.640625q0.265625 -0.265625 0.765625 -0.296875l2.78125 -2.4375l-2.453125 -2.09375q-0.484375 -0.03125 -0.734375 -0.28125q-0.25 -0.265625 -0.25 -0.65625q0 -0.40625 0.28125 -0.65625q0.296875 -0.265625 0.96875 -0.265625l1.75 0q0.671875 0 0.953125 0.265625q0.28125 0.25 0.28125 0.65625q0 0.53125 -0.5 0.859375l1.125 0.953125l1.109375 -0.96875q-0.5 -0.34375 -0.5 -0.8125q0 -0.4375 0.28125 -0.6875q0.296875 -0.265625 0.96875 -0.265625l1.734375 0q0.671875 0 0.953125 0.265625q0.296875 0.25 0.296875 0.671875q0 0.375 -0.25 0.640625q-0.25 0.25 -0.75 0.28125l-2.453125 2.109375zm12.445557 -1.671875q0.71875 0.5625 1.078125 1.265625q0.359375 0.703125 0.359375 1.546875q0 0.9375 -0.46875 1.734375q-0.453125 0.78125 -1.4375 1.234375q-0.984375 0.453125 -2.1875 0.453125q-1.203125 0 -2.171875 -0.453125q-0.96875 -0.453125 -1.421875 -1.234375q-0.453125 -0.796875 -0.453125 -1.734375q0 -0.84375 0.359375 -1.546875q0.359375 -0.703125 1.078125 -1.265625q-0.640625 -0.578125 -0.953125 -1.234375q-0.3125 -0.65625 -0.3125 -1.390625q0 -1.421875 1.09375 -2.453125q1.09375 -1.046875 2.796875 -1.046875q1.71875 0 2.8125 1.046875q1.09375 1.03125 1.09375 2.453125q0 0.734375 -0.328125 1.390625q-0.3125 0.65625 -0.9375 1.234375zm-0.65625 -2.578125q0 -0.703125 -0.546875 -1.1875q-0.53125 -0.484375 -1.453125 -0.484375q-0.921875 0 -1.46875 0.484375q-0.546875 0.484375 -0.546875 1.1875q0 0.6875 0.546875 1.1875q0.546875 0.484375 1.46875 0.484375q0.921875 0 1.453125 -0.484375q0.546875 -0.5 0.546875 -1.1875zm0.21875 5.484375q0 -0.734375 -0.640625 -1.328125q-0.625 -0.59375 -1.5625 -0.59375q-0.9375 0 -1.578125 0.59375q-0.625 0.59375 -0.625 1.34375q0 0.59375 0.546875 1.03125q0.546875 0.421875 1.65625 0.421875q1.125 0 1.65625 -0.421875q0.546875 -0.4375 0.546875 -1.046875zm11.711212 -8.71875l0 7.296875q0.59375 0 0.875 0.265625q0.28125 0.25 0.28125 0.671875q0 0.40625 -0.28125 0.671875q-0.28125 0.265625 -0.875 0.265625l0 0.734375q0.59375 0 0.875 0.265625q0.28125 0.265625 0.28125 0.6875q0 0.40625 -0.28125 0.671875q-0.28125 0.25 -0.953125 0.25l-2.515625 0q-0.671875 0 -0.96875 -0.25q-0.28125 -0.265625 -0.28125 -0.6875q0 -0.40625 0.28125 -0.671875q0.296875 -0.265625 0.96875 -0.265625l0.734375 0l0 -0.734375l-5.078125 0l0 -1.5625l4.46875 -7.609375l2.46875 0zm-1.859375 7.296875l0 -4.59375l-2.703125 4.59375l2.703125 0z" fill-rule="nonzero"/><path fill="#000000" d="m406.7647 111.30236l0 10.21875l1.890625 0q0.671875 0 0.953125 0.265625q0.296875 0.265625 0.296875 0.6875q0 0.40625 -0.296875 0.671875q-0.28125 0.25 -0.953125 0.25l-5.640625 0q-0.671875 0 -0.96875 -0.25q-0.28125 -0.265625 -0.28125 -0.6875q0 -0.40625 0.28125 -0.671875q0.296875 -0.265625 0.96875 -0.265625l1.890625 0l0 -7.78125l-1.671875 0.4375q-0.40625 0.109375 -0.609375 0.109375q-0.34375 0 -0.609375 -0.28125q-0.25 -0.28125 -0.25 -0.6875q0 -0.375 0.1875 -0.59375q0.1875 -0.21875 0.796875 -0.375l4.015625 -1.046875zm8.492462 5.71875q0.671875 -0.5625 1.28125 -0.8125q0.609375 -0.265625 1.3125 -0.265625q1.453125 0 2.5625 1.171875q1.109375 1.15625 1.109375 2.90625q0 1.640625 -1.03125 2.640625q-1.03125 1.0 -2.78125 1.0q-1.46875 0 -2.421875 -0.671875q-0.9375 -0.6875 -1.421875 -2.109375q-0.484375 -1.421875 -0.484375 -3.171875q0 -2.09375 0.953125 -3.484375q0.953125 -1.390625 2.25 -2.15625q1.296875 -0.765625 2.734375 -0.765625q1.140625 0 1.765625 0.453125q0.40625 0.296875 0.40625 0.765625q0 0.40625 -0.28125 0.6875q-0.265625 0.28125 -0.640625 0.28125q-0.21875 0 -0.625 -0.21875q-0.25 -0.125 -0.484375 -0.125q-0.890625 0 -1.84375 0.5q-0.953125 0.5 -1.65625 1.546875q-0.484375 0.734375 -0.703125 1.828125zm0.28125 2.890625q0.28125 1.09375 0.78125 1.5q0.5 0.390625 1.421875 0.390625q0.90625 0 1.40625 -0.484375q0.5 -0.484375 0.5 -1.3125q0 -0.953125 -0.578125 -1.578125q-0.5625 -0.625 -1.265625 -0.625q-0.5625 0 -1.21875 0.5625q-0.640625 0.546875 -1.046875 1.546875z" fill-rule="nonzero"/><path fill="#000000" d="m334.36478 161.89168l0 2.0625q0 1.8125 -1.0625 3.484375q-1.046875 1.65625 -3.0 1.65625q-1.125 0 -1.90625 -0.484375q-0.78125 -0.5 -1.484375 -1.828125q-0.6875 -1.34375 -0.6875 -2.828125l0 -2.0625q0 -1.8125 1.046875 -3.484375q1.046875 -1.671875 3.0 -1.671875q1.125 0 1.90625 0.5q0.78125 0.484375 1.484375 1.828125q0.703125 1.328125 0.703125 2.828125zm-1.875 0q0 -1.515625 -0.84375 -2.65625q-0.484375 -0.625 -1.359375 -0.625q-0.84375 0 -1.390625 0.6875q-0.8125 1.046875 -0.8125 2.59375l0 2.0625q0 1.515625 0.859375 2.65625q0.484375 0.625 1.359375 0.625q0.84375 0 1.375 -0.6875q0.8125 -1.046875 0.8125 -2.59375l0 -2.0625zm10.398712 2.640625l2.828125 2.421875q0.515625 0.03125 0.765625 0.296875q0.25 0.25 0.25 0.65625q0 0.40625 -0.28125 0.671875q-0.28125 0.25 -0.96875 0.25l-2.109375 0q-0.671875 0 -0.96875 -0.25q-0.28125 -0.265625 -0.28125 -0.703125q0 -0.328125 0.203125 -0.578125q0.203125 -0.25 0.5625 -0.34375l-1.390625 -1.1875l-1.421875 1.1875q0.421875 0.109375 0.609375 0.34375q0.1875 0.234375 0.1875 0.578125q0 0.4375 -0.28125 0.703125q-0.28125 0.25 -0.953125 0.25l-2.109375 0q-0.671875 0 -0.96875 -0.25q-0.28125 -0.265625 -0.28125 -0.6875q0 -0.390625 0.25 -0.640625q0.265625 -0.265625 0.765625 -0.296875l2.78125 -2.4375l-2.453125 -2.09375q-0.484375 -0.03125 -0.734375 -0.28125q-0.25 -0.265625 -0.25 -0.65625q0 -0.40625 0.28125 -0.65625q0.296875 -0.265625 0.96875 -0.265625l1.75 0q0.671875 0 0.953125 0.265625q0.28125 0.25 0.28125 0.65625q0 0.53125 -0.5 0.859375l1.125 0.953125l1.109375 -0.96875q-0.5 -0.34375 -0.5 -0.8125q0 -0.4375 0.28125 -0.6875q0.296875 -0.265625 0.96875 -0.265625l1.734375 0q0.671875 0 0.953125 0.265625q0.296875 0.25 0.296875 0.671875q0 0.375 -0.25 0.640625q-0.25 0.25 -0.75 0.28125l-2.453125 2.109375zm12.445557 -1.671875q0.71875 0.5625 1.078125 1.265625q0.359375 0.703125 0.359375 1.546875q0 0.9375 -0.46875 1.734375q-0.453125 0.78125 -1.4375 1.234375q-0.984375 0.453125 -2.1875 0.453125q-1.203125 0 -2.171875 -0.453125q-0.96875 -0.453125 -1.421875 -1.234375q-0.453125 -0.796875 -0.453125 -1.734375q0 -0.84375 0.359375 -1.546875q0.359375 -0.703125 1.078125 -1.265625q-0.640625 -0.578125 -0.953125 -1.234375q-0.3125 -0.65625 -0.3125 -1.390625q0 -1.421875 1.09375 -2.453125q1.09375 -1.046875 2.796875 -1.046875q1.71875 0 2.8125 1.046875q1.09375 1.03125 1.09375 2.453125q0 0.734375 -0.328125 1.390625q-0.3125 0.65625 -0.9375 1.234375zm-0.65625 -2.578125q0 -0.703125 -0.546875 -1.1875q-0.53125 -0.484375 -1.453125 -0.484375q-0.921875 0 -1.46875 0.484375q-0.546875 0.484375 -0.546875 1.1875q0 0.6875 0.546875 1.1875q0.546875 0.484375 1.46875 0.484375q0.921875 0 1.453125 -0.484375q0.546875 -0.5 0.546875 -1.1875zm0.21875 5.484375q0 -0.734375 -0.640625 -1.328125q-0.625 -0.59375 -1.5625 -0.59375q-0.9375 0 -1.578125 0.59375q-0.625 0.59375 -0.625 1.34375q0 0.59375 0.546875 1.03125q0.546875 0.421875 1.65625 0.421875q1.125 0 1.65625 -0.421875q0.546875 -0.4375 0.546875 -1.046875zm11.633087 -2.90625q0.71875 0.5625 1.078125 1.265625q0.359375 0.703125 0.359375 1.546875q0 0.9375 -0.46875 1.734375q-0.453125 0.78125 -1.4375 1.234375q-0.984375 0.453125 -2.1875 0.453125q-1.203125 0 -2.171875 -0.453125q-0.96875 -0.453125 -1.421875 -1.234375q-0.453125 -0.796875 -0.453125 -1.734375q0 -0.84375 0.359375 -1.546875q0.359375 -0.703125 1.078125 -1.265625q-0.640625 -0.578125 -0.953125 -1.234375q-0.3125 -0.65625 -0.3125 -1.390625q0 -1.421875 1.09375 -2.453125q1.09375 -1.046875 2.796875 -1.046875q1.71875 0 2.8125 1.046875q1.09375 1.03125 1.09375 2.453125q0 0.734375 -0.328125 1.390625q-0.3125 0.65625 -0.9375 1.234375zm-0.65625 -2.578125q0 -0.703125 -0.546875 -1.1875q-0.53125 -0.484375 -1.453125 -0.484375q-0.921875 0 -1.46875 0.484375q-0.546875 0.484375 -0.546875 1.1875q0 0.6875 0.546875 1.1875q0.546875 0.484375 1.46875 0.484375q0.921875 0 1.453125 -0.484375q0.546875 -0.5 0.546875 -1.1875zm0.21875 5.484375q0 -0.734375 -0.640625 -1.328125q-0.625 -0.59375 -1.5625 -0.59375q-0.9375 0 -1.578125 0.59375q-0.625 0.59375 -0.625 1.34375q0 0.59375 0.546875 1.03125q0.546875 0.421875 1.65625 0.421875q1.125 0 1.65625 -0.421875q0.546875 -0.4375 0.546875 -1.046875z" fill-rule="nonzero"/><path fill="#000000" d="m408.54596 157.04793l0 7.296875q0.59375 0 0.875 0.265625q0.28125 0.25 0.28125 0.671875q0 0.40625 -0.28125 0.671875q-0.28125 0.265625 -0.875 0.265625l0 0.734375q0.59375 0 0.875 0.265625q0.28125 0.265625 0.28125 0.6875q0 0.40625 -0.28125 0.671875q-0.28125 0.25 -0.953125 0.25l-2.515625 0q-0.671875 0 -0.96875 -0.25q-0.28125 -0.265625 -0.28125 -0.6875q0 -0.40625 0.28125 -0.671875q0.296875 -0.265625 0.96875 -0.265625l0.734375 0l0 -0.734375l-5.078125 0l0 -1.5625l4.46875 -7.609375l2.46875 0zm-1.859375 7.296875l0 -4.59375l-2.703125 4.59375l2.703125 0z" fill-rule="nonzero"/><path fill="#000000" d="m334.36478 207.32475l0 2.0625q0 1.8125 -1.0625 3.484375q-1.046875 1.65625 -3.0 1.65625q-1.125 0 -1.90625 -0.484375q-0.78125 -0.5 -1.484375 -1.828125q-0.6875 -1.34375 -0.6875 -2.828125l0 -2.0625q0 -1.8125 1.046875 -3.484375q1.046875 -1.671875 3.0 -1.671875q1.125 0 1.90625 0.5q0.78125 0.484375 1.484375 1.828125q0.703125 1.328125 0.703125 2.828125zm-1.875 0q0 -1.515625 -0.84375 -2.65625q-0.484375 -0.625 -1.359375 -0.625q-0.84375 0 -1.390625 0.6875q-0.8125 1.046875 -0.8125 2.59375l0 2.0625q0 1.515625 0.859375 2.65625q0.484375 0.625 1.359375 0.625q0.84375 0 1.375 -0.6875q0.8125 -1.046875 0.8125 -2.59375l0 -2.0625zm10.398712 2.640625l2.828125 2.421875q0.515625 0.03125 0.765625 0.296875q0.25 0.25 0.25 0.65625q0 0.40625 -0.28125 0.671875q-0.28125 0.25 -0.96875 0.25l-2.109375 0q-0.671875 0 -0.96875 -0.25q-0.28125 -0.265625 -0.28125 -0.703125q0 -0.328125 0.203125 -0.578125q0.203125 -0.25 0.5625 -0.34375l-1.390625 -1.1875l-1.421875 1.1875q0.421875 0.109375 0.609375 0.34375q0.1875 0.234375 0.1875 0.578125q0 0.4375 -0.28125 0.703125q-0.28125 0.25 -0.953125 0.25l-2.109375 0q-0.671875 0 -0.96875 -0.25q-0.28125 -0.265625 -0.28125 -0.6875q0 -0.390625 0.25 -0.640625q0.265625 -0.265625 0.765625 -0.296875l2.78125 -2.4375l-2.453125 -2.09375q-0.484375 -0.03125 -0.734375 -0.28125q-0.25 -0.265625 -0.25 -0.65625q0 -0.40625 0.28125 -0.65625q0.296875 -0.265625 0.96875 -0.265625l1.75 0q0.671875 0 0.953125 0.265625q0.28125 0.25 0.28125 0.65625q0 0.53125 -0.5 0.859375l1.125 0.953125l1.109375 -0.96875q-0.5 -0.34375 -0.5 -0.8125q0 -0.4375 0.28125 -0.6875q0.296875 -0.265625 0.96875 -0.265625l1.734375 0q0.671875 0 0.953125 0.265625q0.296875 0.25 0.296875 0.671875q0 0.375 -0.25 0.640625q-0.25 0.25 -0.75 0.28125l-2.453125 2.109375zm12.445557 -1.671875q0.71875 0.5625 1.078125 1.265625q0.359375 0.703125 0.359375 1.546875q0 0.9375 -0.46875 1.734375q-0.453125 0.78125 -1.4375 1.234375q-0.984375 0.453125 -2.1875 0.453125q-1.203125 0 -2.171875 -0.453125q-0.96875 -0.453125 -1.421875 -1.234375q-0.453125 -0.796875 -0.453125 -1.734375q0 -0.84375 0.359375 -1.546875q0.359375 -0.703125 1.078125 -1.265625q-0.640625 -0.578125 -0.953125 -1.234375q-0.3125 -0.65625 -0.3125 -1.390625q0 -1.421875 1.09375 -2.453125q1.09375 -1.046875 2.796875 -1.046875q1.71875 0 2.8125 1.046875q1.09375 1.03125 1.09375 2.453125q0 0.734375 -0.328125 1.390625q-0.3125 0.65625 -0.9375 1.234375zm-0.65625 -2.578125q0 -0.703125 -0.546875 -1.1875q-0.53125 -0.484375 -1.453125 -0.484375q-0.921875 0 -1.46875 0.484375q-0.546875 0.484375 -0.546875 1.1875q0 0.6875 0.546875 1.1875q0.546875 0.484375 1.46875 0.484375q0.921875 0 1.453125 -0.484375q0.546875 -0.5 0.546875 -1.1875zm0.21875 5.484375q0 -0.734375 -0.640625 -1.328125q-0.625 -0.59375 -1.5625 -0.59375q-0.9375 0 -1.578125 0.59375q-0.625 0.59375 -0.625 1.34375q0 0.59375 0.546875 1.03125q0.546875 0.421875 1.65625 0.421875q1.125 0 1.65625 -0.421875q0.546875 -0.4375 0.546875 -1.046875zm11.898712 -4.875q0.328125 -0.3125 0.6875 -0.3125q0.390625 0 0.65625 0.296875q0.265625 0.28125 0.265625 0.9375l0 1.203125q0 0.671875 -0.265625 0.953125q-0.265625 0.28125 -0.671875 0.28125q-0.390625 0 -0.65625 -0.21875q-0.1875 -0.15625 -0.296875 -0.65625q-0.109375 -0.515625 -0.53125 -0.765625q-0.734375 -0.4375 -1.875 -0.4375q-1.328125 0 -2.125 0.78125q-0.796875 0.78125 -0.796875 1.953125q0 1.09375 0.765625 1.734375q0.765625 0.625 2.546875 0.625q1.15625 0 1.890625 -0.234375q0.4375 -0.140625 0.828125 -0.484375q0.40625 -0.359375 0.71875 -0.359375q0.375 0 0.65625 0.28125q0.28125 0.28125 0.28125 0.671875q0 0.609375 -0.84375 1.171875q-1.265625 0.828125 -3.6875 0.828125q-2.171875 0 -3.390625 -0.90625q-1.640625 -1.203125 -1.640625 -3.3125q0 -2.0 1.328125 -3.296875q1.34375 -1.3125 3.484375 -1.3125q0.765625 0 1.421875 0.15625q0.671875 0.140625 1.25 0.421875z" fill-rule="nonzero"/><path fill="#000000" d="m408.54596 202.481l0 7.296875q0.59375 0 0.875 0.265625q0.28125 0.25 0.28125 0.671875q0 0.40625 -0.28125 0.671875q-0.28125 0.265625 -0.875 0.265625l0 0.734375q0.59375 0 0.875 0.265625q0.28125 0.265625 0.28125 0.6875q0 0.40625 -0.28125 0.671875q-0.28125 0.25 -0.953125 0.25l-2.515625 0q-0.671875 0 -0.96875 -0.25q-0.28125 -0.265625 -0.28125 -0.6875q0 -0.40625 0.28125 -0.671875q0.296875 -0.265625 0.96875 -0.265625l0.734375 0l0 -0.734375l-5.078125 0l0 -1.5625l4.46875 -7.609375l2.46875 0zm-1.859375 7.296875l0 -4.59375l-2.703125 4.59375l2.703125 0z" fill-rule="nonzero"/><path fill="#000000" d="m334.36478 252.75783l0 2.0625q0 1.8124847 -1.0625 3.4843597q-1.046875 1.65625 -3.0 1.65625q-1.125 0 -1.90625 -0.484375q-0.78125 -0.5 -1.484375 -1.828125q-0.6875 -1.34375 -0.6875 -2.8281097l0 -2.0625q0 -1.8125 1.046875 -3.484375q1.046875 -1.671875 3.0 -1.671875q1.125 0 1.90625 0.5q0.78125 0.484375 1.484375 1.828125q0.703125 1.328125 0.703125 2.828125zm-1.875 0q0 -1.515625 -0.84375 -2.65625q-0.484375 -0.625 -1.359375 -0.625q-0.84375 0 -1.390625 0.6875q-0.8125 1.046875 -0.8125 2.59375l0 2.0625q0 1.5156097 0.859375 2.6562347q0.484375 0.625 1.359375 0.625q0.84375 0 1.375 -0.6875q0.8125 -1.046875 0.8125 -2.5937347l0 -2.0625zm10.398712 2.640625l2.828125 2.4218597q0.515625 0.03125 0.765625 0.296875q0.25 0.25 0.25 0.65625q0 0.40625 -0.28125 0.671875q-0.28125 0.25 -0.96875 0.25l-2.109375 0q-0.671875 0 -0.96875 -0.25q-0.28125 -0.265625 -0.28125 -0.703125q0 -0.328125 0.203125 -0.578125q0.203125 -0.25 0.5625 -0.34375l-1.390625 -1.1875l-1.421875 1.1875q0.421875 0.109375 0.609375 0.34375q0.1875 0.234375 0.1875 0.578125q0 0.4375 -0.28125 0.703125q-0.28125 0.25 -0.953125 0.25l-2.109375 0q-0.671875 0 -0.96875 -0.25q-0.28125 -0.265625 -0.28125 -0.6875q0 -0.390625 0.25 -0.640625q0.265625 -0.265625 0.765625 -0.296875l2.78125 -2.4374847l-2.453125 -2.09375q-0.484375 -0.03125 -0.734375 -0.28125q-0.25 -0.265625 -0.25 -0.65625q0 -0.40625 0.28125 -0.65625q0.296875 -0.265625 0.96875 -0.265625l1.75 0q0.671875 0 0.953125 0.265625q0.28125 0.25 0.28125 0.65625q0 0.53125 -0.5 0.859375l1.125 0.953125l1.109375 -0.96875q-0.5 -0.34375 -0.5 -0.8125q0 -0.4375 0.28125 -0.6875q0.296875 -0.265625 0.96875 -0.265625l1.734375 0q0.671875 0 0.953125 0.265625q0.296875 0.25 0.296875 0.671875q0 0.375 -0.25 0.640625q-0.25 0.25 -0.75 0.28125l-2.453125 2.109375zm12.414307 -0.609375q-0.6875 0.609375 -1.28125 0.859375q-0.578125 0.25 -1.21875 0.25q-1.515625 0 -2.640625 -1.203125q-1.125 -1.203125 -1.125 -2.984375q0 -1.390625 0.78125 -2.53125q1.0625 -1.578125 2.984375 -1.578125q1.375 0 2.390625 0.828125q1.03125 0.828125 1.515625 2.390625q0.484375 1.546875 0.484375 3.234375q0 2.8593597 -2.21875 4.5781097q-1.703125 1.328125 -3.75 1.328125q-1.125 0 -1.75 -0.453125q-0.40625 -0.296875 -0.40625 -0.78125q0 -0.40625 0.265625 -0.671875q0.265625 -0.265625 0.65625 -0.265625q0.21875 0 0.484375 0.125q0.359375 0.1875 0.75 0.1875q1.421875 0 2.609375 -0.953125q1.1875 -0.96875 1.46875 -2.3593597zm-0.25 -2.9375q-0.3125 -1.296875 -0.90625 -1.828125q-0.578125 -0.546875 -1.328125 -0.546875q-0.796875 0 -1.359375 0.609375q-0.546875 0.59375 -0.546875 1.609375q0 1.046875 0.5625 1.6875q0.5625 0.640625 1.28125 0.640625q1.265625 0 2.296875 -2.171875zm12.898712 0.90625l0 2.0625q0 1.8124847 -1.0625 3.4843597q-1.046875 1.65625 -3.0 1.65625q-1.125 0 -1.90625 -0.484375q-0.78125 -0.5 -1.484375 -1.828125q-0.6875 -1.34375 -0.6875 -2.8281097l0 -2.0625q0 -1.8125 1.046875 -3.484375q1.046875 -1.671875 3.0 -1.671875q1.125 0 1.90625 0.5q0.78125 0.484375 1.484375 1.828125q0.703125 1.328125 0.703125 2.828125zm-1.875 0q0 -1.515625 -0.84375 -2.65625q-0.484375 -0.625 -1.359375 -0.625q-0.84375 0 -1.390625 0.6875q-0.8125 1.046875 -0.8125 2.59375l0 2.0625q0 1.5156097 0.859375 2.6562347q0.484375 0.625 1.359375 0.625q0.84375 0 1.375 -0.6875q0.8125 -1.046875 0.8125 -2.5937347l0 -2.0625z" fill-rule="nonzero"/><path fill="#000000" d="m406.7647 247.60158l0 10.218735l1.890625 0q0.671875 0 0.953125 0.265625q0.296875 0.265625 0.296875 0.6875q0 0.40625 -0.296875 0.671875q-0.28125 0.25 -0.953125 0.25l-5.640625 0q-0.671875 0 -0.96875 -0.25q-0.28125 -0.265625 -0.28125 -0.6875q0 -0.40625 0.28125 -0.671875q0.296875 -0.265625 0.96875 -0.265625l1.890625 0l0 -7.7812347l-1.671875 0.4375q-0.40625 0.109375 -0.609375 0.109375q-0.34375 0 -0.609375 -0.28125q-0.25 -0.28125 -0.25 -0.6875q0 -0.375 0.1875 -0.59375q0.1875 -0.21875 0.796875 -0.375l4.015625 -1.046875zm8.492462 5.71875q0.671875 -0.5625 1.28125 -0.8125q0.609375 -0.265625 1.3125 -0.265625q1.453125 0 2.5625 1.171875q1.109375 1.15625 1.109375 2.9062347q0 1.640625 -1.03125 2.640625q-1.03125 1.0 -2.78125 1.0q-1.46875 0 -2.421875 -0.671875q-0.9375 -0.6875 -1.421875 -2.109375q-0.484375 -1.4218597 -0.484375 -3.1718597q0 -2.09375 0.953125 -3.484375q0.953125 -1.390625 2.25 -2.15625q1.296875 -0.765625 2.734375 -0.765625q1.140625 0 1.765625 0.453125q0.40625 0.296875 0.40625 0.765625q0 0.40625 -0.28125 0.6875q-0.265625 0.28125 -0.640625 0.28125q-0.21875 0 -0.625 -0.21875q-0.25 -0.125 -0.484375 -0.125q-0.890625 0 -1.84375 0.5q-0.953125 0.5 -1.65625 1.546875q-0.484375 0.734375 -0.703125 1.828125zm0.28125 2.8906097q0.28125 1.09375 0.78125 1.5q0.5 0.390625 1.421875 0.390625q0.90625 0 1.40625 -0.484375q0.5 -0.484375 0.5 -1.3125q0 -0.95310974 -0.578125 -1.5781097q-0.5625 -0.625 -1.265625 -0.625q-0.5625 0 -1.21875 0.5625q-0.640625 0.546875 -1.046875 1.5468597z" fill-rule="nonzero"/><path fill="#000000" d="m334.36478 298.1909l0 2.0625q0 1.8125 -1.0625 3.484375q-1.046875 1.65625 -3.0 1.65625q-1.125 0 -1.90625 -0.484375q-0.78125 -0.5 -1.484375 -1.828125q-0.6875 -1.34375 -0.6875 -2.828125l0 -2.0625q0 -1.8125 1.046875 -3.484375q1.046875 -1.671875 3.0 -1.671875q1.125 0 1.90625 0.5q0.78125 0.484375 1.484375 1.828125q0.703125 1.328125 0.703125 2.828125zm-1.875 0q0 -1.515625 -0.84375 -2.65625q-0.484375 -0.625 -1.359375 -0.625q-0.84375 0 -1.390625 0.6875q-0.8125 1.046875 -0.8125 2.59375l0 2.0625q0 1.515625 0.859375 2.65625q0.484375 0.625 1.359375 0.625q0.84375 0 1.375 -0.6875q0.8125 -1.046875 0.8125 -2.59375l0 -2.0625zm10.398712 2.640625l2.828125 2.421875q0.515625 0.03125 0.765625 0.296875q0.25 0.25 0.25 0.65625q0 0.40625 -0.28125 0.671875q-0.28125 0.25 -0.96875 0.25l-2.109375 0q-0.671875 0 -0.96875 -0.25q-0.28125 -0.265625 -0.28125 -0.703125q0 -0.328125 0.203125 -0.578125q0.203125 -0.25 0.5625 -0.34375l-1.390625 -1.1875l-1.421875 1.1875q0.421875 0.109375 0.609375 0.34375q0.1875 0.234375 0.1875 0.578125q0 0.4375 -0.28125 0.703125q-0.28125 0.25 -0.953125 0.25l-2.109375 0q-0.671875 0 -0.96875 -0.25q-0.28125 -0.265625 -0.28125 -0.6875q0 -0.390625 0.25 -0.640625q0.265625 -0.265625 0.765625 -0.296875l2.78125 -2.4375l-2.453125 -2.09375q-0.484375 -0.03125 -0.734375 -0.28125q-0.25 -0.265625 -0.25 -0.65625q0 -0.40625 0.28125 -0.65625q0.296875 -0.265625 0.96875 -0.265625l1.75 0q0.671875 0 0.953125 0.265625q0.28125 0.25 0.28125 0.65625q0 0.53125 -0.5 0.859375l1.125 0.953125l1.109375 -0.96875q-0.5 -0.34375 -0.5 -0.8125q0 -0.4375 0.28125 -0.6875q0.296875 -0.265625 0.96875 -0.265625l1.734375 0q0.671875 0 0.953125 0.265625q0.296875 0.25 0.296875 0.671875q0 0.375 -0.25 0.640625q-0.25 0.25 -0.75 0.28125l-2.453125 2.109375zm12.414307 -0.609375q-0.6875 0.609375 -1.28125 0.859375q-0.578125 0.25 -1.21875 0.25q-1.515625 0 -2.640625 -1.203125q-1.125 -1.203125 -1.125 -2.984375q0 -1.390625 0.78125 -2.53125q1.0625 -1.578125 2.984375 -1.578125q1.375 0 2.390625 0.828125q1.03125 0.828125 1.515625 2.390625q0.484375 1.546875 0.484375 3.234375q0 2.859375 -2.21875 4.578125q-1.703125 1.328125 -3.75 1.328125q-1.125 0 -1.75 -0.453125q-0.40625 -0.296875 -0.40625 -0.78125q0 -0.40625 0.265625 -0.671875q0.265625 -0.265625 0.65625 -0.265625q0.21875 0 0.484375 0.125q0.359375 0.1875 0.75 0.1875q1.421875 0 2.609375 -0.953125q1.1875 -0.96875 1.46875 -2.359375zm-0.25 -2.9375q-0.3125 -1.296875 -0.90625 -1.828125q-0.578125 -0.546875 -1.328125 -0.546875q-0.796875 0 -1.359375 0.609375q-0.546875 0.59375 -0.546875 1.609375q0 1.046875 0.5625 1.6875q0.5625 0.640625 1.28125 0.640625q1.265625 0 2.296875 -2.171875zm11.554962 -3.9375l0 7.296875q0.59375 0 0.875 0.265625q0.28125 0.25 0.28125 0.671875q0 0.40625 -0.28125 0.671875q-0.28125 0.265625 -0.875 0.265625l0 0.734375q0.59375 0 0.875 0.265625q0.28125 0.265625 0.28125 0.6875q0 0.40625 -0.28125 0.671875q-0.28125 0.25 -0.953125 0.25l-2.515625 0q-0.671875 0 -0.96875 -0.25q-0.28125 -0.265625 -0.28125 -0.6875q0 -0.40625 0.28125 -0.671875q0.296875 -0.265625 0.96875 -0.265625l0.734375 0l0 -0.734375l-5.078125 0l0 -1.5625l4.46875 -7.609375l2.46875 0zm-1.859375 7.296875l0 -4.59375l-2.703125 4.59375l2.703125 0z" fill-rule="nonzero"/><path fill="#000000" d="m409.8897 298.1909l0 2.0625q0 1.8125 -1.0625 3.484375q-1.046875 1.65625 -3.0 1.65625q-1.125 0 -1.90625 -0.484375q-0.78125 -0.5 -1.484375 -1.828125q-0.6875 -1.34375 -0.6875 -2.828125l0 -2.0625q0 -1.8125 1.046875 -3.484375q1.046875 -1.671875 3.0 -1.671875q1.125 0 1.90625 0.5q0.78125 0.484375 1.484375 1.828125q0.703125 1.328125 0.703125 2.828125zm-1.875 0q0 -1.515625 -0.84375 -2.65625q-0.484375 -0.625 -1.359375 -0.625q-0.84375 0 -1.390625 0.6875q-0.8125 1.046875 -0.8125 2.59375l0 2.0625q0 1.515625 0.859375 2.65625q0.484375 0.625 1.359375 0.625q0.84375 0 1.375 -0.6875q0.8125 -1.046875 0.8125 -2.59375l0 -2.0625z" fill-rule="nonzero"/><path fill="#000000" d="m334.36478 343.62396l0 2.0625q0 1.8125 -1.0625 3.484375q-1.046875 1.65625 -3.0 1.65625q-1.125 0 -1.90625 -0.484375q-0.78125 -0.5 -1.484375 -1.828125q-0.6875 -1.34375 -0.6875 -2.828125l0 -2.0625q0 -1.8125 1.046875 -3.484375q1.046875 -1.671875 3.0 -1.671875q1.125 0 1.90625 0.5q0.78125 0.484375 1.484375 1.828125q0.703125 1.328125 0.703125 2.828125zm-1.875 0q0 -1.515625 -0.84375 -2.65625q-0.484375 -0.625 -1.359375 -0.625q-0.84375 0 -1.390625 0.6875q-0.8125 1.046875 -0.8125 2.59375l0 2.0625q0 1.515625 0.859375 2.65625q0.484375 0.625 1.359375 0.625q0.84375 0 1.375 -0.6875q0.8125 -1.046875 0.8125 -2.59375l0 -2.0625zm10.398712 2.640625l2.828125 2.421875q0.515625 0.03125 0.765625 0.296875q0.25 0.25 0.25 0.65625q0 0.40625 -0.28125 0.671875q-0.28125 0.25 -0.96875 0.25l-2.109375 0q-0.671875 0 -0.96875 -0.25q-0.28125 -0.265625 -0.28125 -0.703125q0 -0.328125 0.203125 -0.578125q0.203125 -0.25 0.5625 -0.34375l-1.390625 -1.1875l-1.421875 1.1875q0.421875 0.109375 0.609375 0.34375q0.1875 0.234375 0.1875 0.578125q0 0.4375 -0.28125 0.703125q-0.28125 0.25 -0.953125 0.25l-2.109375 0q-0.671875 0 -0.96875 -0.25q-0.28125 -0.265625 -0.28125 -0.6875q0 -0.390625 0.25 -0.640625q0.265625 -0.265625 0.765625 -0.296875l2.78125 -2.4375l-2.453125 -2.09375q-0.484375 -0.03125 -0.734375 -0.28125q-0.25 -0.265625 -0.25 -0.65625q0 -0.40625 0.28125 -0.65625q0.296875 -0.265625 0.96875 -0.265625l1.75 0q0.671875 0 0.953125 0.265625q0.28125 0.25 0.28125 0.65625q0 0.53125 -0.5 0.859375l1.125 0.953125l1.109375 -0.96875q-0.5 -0.34375 -0.5 -0.8125q0 -0.4375 0.28125 -0.6875q0.296875 -0.265625 0.96875 -0.265625l1.734375 0q0.671875 0 0.953125 0.265625q0.296875 0.25 0.296875 0.671875q0 0.375 -0.25 0.640625q-0.25 0.25 -0.75 0.28125l-2.453125 2.109375zm12.414307 -0.609375q-0.6875 0.609375 -1.28125 0.859375q-0.578125 0.25 -1.21875 0.25q-1.515625 0 -2.640625 -1.203125q-1.125 -1.203125 -1.125 -2.984375q0 -1.390625 0.78125 -2.53125q1.0625 -1.578125 2.984375 -1.578125q1.375 0 2.390625 0.828125q1.03125 0.828125 1.515625 2.390625q0.484375 1.546875 0.484375 3.234375q0 2.859375 -2.21875 4.578125q-1.703125 1.328125 -3.75 1.328125q-1.125 0 -1.75 -0.453125q-0.40625 -0.296875 -0.40625 -0.78125q0 -0.40625 0.265625 -0.671875q0.265625 -0.265625 0.65625 -0.265625q0.21875 0 0.484375 0.125q0.359375 0.1875 0.75 0.1875q1.421875 0 2.609375 -0.953125q1.1875 -0.96875 1.46875 -2.359375zm-0.25 -2.9375q-0.3125 -1.296875 -0.90625 -1.828125q-0.578125 -0.546875 -1.328125 -0.546875q-0.796875 0 -1.359375 0.609375q-0.546875 0.59375 -0.546875 1.609375q0 1.046875 0.5625 1.6875q0.5625 0.640625 1.28125 0.640625q1.265625 0 2.296875 -2.171875zm11.476837 1.875q0.71875 0.5625 1.078125 1.265625q0.359375 0.703125 0.359375 1.546875q0 0.9375 -0.46875 1.734375q-0.453125 0.78125 -1.4375 1.234375q-0.984375 0.453125 -2.1875 0.453125q-1.203125 0 -2.171875 -0.453125q-0.96875 -0.453125 -1.421875 -1.234375q-0.453125 -0.796875 -0.453125 -1.734375q0 -0.84375 0.359375 -1.546875q0.359375 -0.703125 1.078125 -1.265625q-0.640625 -0.578125 -0.953125 -1.234375q-0.3125 -0.65625 -0.3125 -1.390625q0 -1.421875 1.09375 -2.453125q1.09375 -1.046875 2.796875 -1.046875q1.71875 0 2.8125 1.046875q1.09375 1.03125 1.09375 2.453125q0 0.734375 -0.328125 1.390625q-0.3125 0.65625 -0.9375 1.234375zm-0.65625 -2.578125q0 -0.703125 -0.546875 -1.1875q-0.53125 -0.484375 -1.453125 -0.484375q-0.921875 0 -1.46875 0.484375q-0.546875 0.484375 -0.546875 1.1875q0 0.6875 0.546875 1.1875q0.546875 0.484375 1.46875 0.484375q0.921875 0 1.453125 -0.484375q0.546875 -0.5 0.546875 -1.1875zm0.21875 5.484375q0 -0.734375 -0.640625 -1.328125q-0.625 -0.59375 -1.5625 -0.59375q-0.9375 0 -1.578125 0.59375q-0.625 0.59375 -0.625 1.34375q0 0.59375 0.546875 1.03125q0.546875 0.421875 1.65625 0.421875q1.125 0 1.65625 -0.421875q0.546875 -0.4375 0.546875 -1.046875z" fill-rule="nonzero"/><path fill="#000000" d="m408.48346 344.3271q0.828125 0.5625 1.234375 1.3125q0.40625 0.734375 0.40625 1.65625q0 0.984375 -0.546875 1.828125q-0.53125 0.84375 -1.5625 1.28125q-1.03125 0.421875 -2.703125 0.421875q-2.15625 0 -3.25 -0.671875q-0.609375 -0.375 -0.609375 -0.90625q0 -0.40625 0.265625 -0.671875q0.265625 -0.28125 0.65625 -0.28125q0.25 0 0.546875 0.171875q0.390625 0.28125 0.75 0.375q0.546875 0.125 1.5 0.125q1.640625 0 2.359375 -0.421875q0.734375 -0.421875 0.734375 -1.203125q0 -0.578125 -0.421875 -1.109375q-0.421875 -0.53125 -1.140625 -0.8125q-0.40625 -0.171875 -1.390625 -0.234375q-0.453125 -0.03125 -0.703125 -0.28125q-0.25 -0.265625 -0.25 -0.640625q0 -0.40625 0.265625 -0.671875q0.28125 -0.28125 0.6875 -0.28125q0.9375 0 1.0 -0.015625q0.359375 -0.03125 0.71875 -0.234375q0.375 -0.203125 0.59375 -0.546875q0.234375 -0.359375 0.234375 -0.71875q0 -0.59375 -0.53125 -1.03125q-0.515625 -0.4375 -1.578125 -0.4375q-1.34375 0 -2.046875 0.78125q-0.21875 0.234375 -0.34375 0.296875q-0.1875 0.09375 -0.421875 0.09375q-0.390625 0 -0.671875 -0.265625q-0.265625 -0.265625 -0.265625 -0.671875q0 -0.625 0.84375 -1.21875q1.21875 -0.875 3.046875 -0.875q1.734375 0 2.78125 0.984375q1.046875 0.984375 1.046875 2.375q0 0.71875 -0.3125 1.34375q-0.3125 0.625 -0.921875 1.15625zm6.773712 -0.140625q0.671875 -0.5625 1.28125 -0.8125q0.609375 -0.265625 1.3125 -0.265625q1.453125 0 2.5625 1.171875q1.109375 1.15625 1.109375 2.90625q0 1.640625 -1.03125 2.640625q-1.03125 1.0 -2.78125 1.0q-1.46875 0 -2.421875 -0.671875q-0.9375 -0.6875 -1.421875 -2.109375q-0.484375 -1.421875 -0.484375 -3.171875q0 -2.09375 0.953125 -3.484375q0.953125 -1.390625 2.25 -2.15625q1.296875 -0.765625 2.734375 -0.765625q1.140625 0 1.765625 0.453125q0.40625 0.296875 0.40625 0.765625q0 0.40625 -0.28125 0.6875q-0.265625 0.28125 -0.640625 0.28125q-0.21875 0 -0.625 -0.21875q-0.25 -0.125 -0.484375 -0.125q-0.890625 0 -1.84375 0.5q-0.953125 0.5 -1.65625 1.546875q-0.484375 0.734375 -0.703125 1.828125zm0.28125 2.890625q0.28125 1.09375 0.78125 1.5q0.5 0.390625 1.421875 0.390625q0.90625 0 1.40625 -0.484375q0.5 -0.484375 0.5 -1.3125q0 -0.953125 -0.578125 -1.578125q-0.5625 -0.625 -1.265625 -0.625q-0.5625 0 -1.21875 0.5625q-0.640625 0.546875 -1.046875 1.546875z" fill-rule="nonzero"/><path fill="#000000" d="m334.36478 389.05704l0 2.0625q0 1.8125 -1.0625 3.484375q-1.046875 1.65625 -3.0 1.65625q-1.125 0 -1.90625 -0.484375q-0.78125 -0.5 -1.484375 -1.828125q-0.6875 -1.34375 -0.6875 -2.828125l0 -2.0625q0 -1.8125 1.046875 -3.484375q1.046875 -1.671875 3.0 -1.671875q1.125 0 1.90625 0.5q0.78125 0.484375 1.484375 1.828125q0.703125 1.328125 0.703125 2.828125zm-1.875 0q0 -1.515625 -0.84375 -2.65625q-0.484375 -0.625 -1.359375 -0.625q-0.84375 0 -1.390625 0.6875q-0.8125 1.046875 -0.8125 2.59375l0 2.0625q0 1.515625 0.859375 2.65625q0.484375 0.625 1.359375 0.625q0.84375 0 1.375 -0.6875q0.8125 -1.046875 0.8125 -2.59375l0 -2.0625zm10.398712 2.640625l2.828125 2.421875q0.515625 0.03125 0.765625 0.296875q0.25 0.25 0.25 0.65625q0 0.40625 -0.28125 0.671875q-0.28125 0.25 -0.96875 0.25l-2.109375 0q-0.671875 0 -0.96875 -0.25q-0.28125 -0.265625 -0.28125 -0.703125q0 -0.328125 0.203125 -0.578125q0.203125 -0.25 0.5625 -0.34375l-1.390625 -1.1875l-1.421875 1.1875q0.421875 0.109375 0.609375 0.34375q0.1875 0.234375 0.1875 0.578125q0 0.4375 -0.28125 0.703125q-0.28125 0.25 -0.953125 0.25l-2.109375 0q-0.671875 0 -0.96875 -0.25q-0.28125 -0.265625 -0.28125 -0.6875q0 -0.390625 0.25 -0.640625q0.265625 -0.265625 0.765625 -0.296875l2.78125 -2.4375l-2.453125 -2.09375q-0.484375 -0.03125 -0.734375 -0.28125q-0.25 -0.265625 -0.25 -0.65625q0 -0.40625 0.28125 -0.65625q0.296875 -0.265625 0.96875 -0.265625l1.75 0q0.671875 0 0.953125 0.265625q0.28125 0.25 0.28125 0.65625q0 0.53125 -0.5 0.859375l1.125 0.953125l1.109375 -0.96875q-0.5 -0.34375 -0.5 -0.8125q0 -0.4375 0.28125 -0.6875q0.296875 -0.265625 0.96875 -0.265625l1.734375 0q0.671875 0 0.953125 0.265625q0.296875 0.25 0.296875 0.671875q0 0.375 -0.25 0.640625q-0.25 0.25 -0.75 0.28125l-2.453125 2.109375zm12.414307 -0.609375q-0.6875 0.609375 -1.28125 0.859375q-0.578125 0.25 -1.21875 0.25q-1.515625 0 -2.640625 -1.203125q-1.125 -1.203125 -1.125 -2.984375q0 -1.390625 0.78125 -2.53125q1.0625 -1.578125 2.984375 -1.578125q1.375 0 2.390625 0.828125q1.03125 0.828125 1.515625 2.390625q0.484375 1.546875 0.484375 3.234375q0 2.859375 -2.21875 4.578125q-1.703125 1.328125 -3.75 1.328125q-1.125 0 -1.75 -0.453125q-0.40625 -0.296875 -0.40625 -0.78125q0 -0.40625 0.265625 -0.671875q0.265625 -0.265625 0.65625 -0.265625q0.21875 0 0.484375 0.125q0.359375 0.1875 0.75 0.1875q1.421875 0 2.609375 -0.953125q1.1875 -0.96875 1.46875 -2.359375zm-0.25 -2.9375q-0.3125 -1.296875 -0.90625 -1.828125q-0.578125 -0.546875 -1.328125 -0.546875q-0.796875 0 -1.359375 0.609375q-0.546875 0.59375 -0.546875 1.609375q0 1.046875 0.5625 1.6875q0.5625 0.640625 1.28125 0.640625q1.265625 0 2.296875 -2.171875zm11.742462 -0.09375q0.328125 -0.3125 0.6875 -0.3125q0.390625 0 0.65625 0.296875q0.265625 0.28125 0.265625 0.9375l0 1.203125q0 0.671875 -0.265625 0.953125q-0.265625 0.28125 -0.671875 0.28125q-0.390625 0 -0.65625 -0.21875q-0.1875 -0.15625 -0.296875 -0.65625q-0.109375 -0.515625 -0.53125 -0.765625q-0.734375 -0.4375 -1.875 -0.4375q-1.328125 0 -2.125 0.78125q-0.796875 0.78125 -0.796875 1.953125q0 1.09375 0.765625 1.734375q0.765625 0.625 2.546875 0.625q1.15625 0 1.890625 -0.234375q0.4375 -0.140625 0.828125 -0.484375q0.40625 -0.359375 0.71875 -0.359375q0.375 0 0.65625 0.28125q0.28125 0.28125 0.28125 0.671875q0 0.609375 -0.84375 1.171875q-1.265625 0.828125 -3.6875 0.828125q-2.171875 0 -3.390625 -0.90625q-1.640625 -1.203125 -1.640625 -3.3125q0 -2.0 1.328125 -3.296875q1.34375 -1.3125 3.484375 -1.3125q0.765625 0 1.421875 0.15625q0.671875 0.140625 1.25 0.421875z" fill-rule="nonzero"/><path fill="#000000" d="m408.54596 384.2133l0 7.296875q0.59375 0 0.875 0.265625q0.28125 0.25 0.28125 0.671875q0 0.40625 -0.28125 0.671875q-0.28125 0.265625 -0.875 0.265625l0 0.734375q0.59375 0 0.875 0.265625q0.28125 0.265625 0.28125 0.6875q0 0.40625 -0.28125 0.671875q-0.28125 0.25 -0.953125 0.25l-2.515625 0q-0.671875 0 -0.96875 -0.25q-0.28125 -0.265625 -0.28125 -0.6875q0 -0.40625 0.28125 -0.671875q0.296875 -0.265625 0.96875 -0.265625l0.734375 0l0 -0.734375l-5.078125 0l0 -1.5625l4.46875 -7.609375l2.46875 0zm-1.859375 7.296875l0 -4.59375l-2.703125 4.59375l2.703125 0z" fill-rule="nonzero"/><path fill="#000000" d="m334.36478 434.4901l0 2.0625q0 1.8125 -1.0625 3.484375q-1.046875 1.65625 -3.0 1.65625q-1.125 0 -1.90625 -0.484375q-0.78125 -0.5 -1.484375 -1.828125q-0.6875 -1.34375 -0.6875 -2.828125l0 -2.0625q0 -1.8125 1.046875 -3.484375q1.046875 -1.671875 3.0 -1.671875q1.125 0 1.90625 0.5q0.78125 0.484375 1.484375 1.828125q0.703125 1.328125 0.703125 2.828125zm-1.875 0q0 -1.515625 -0.84375 -2.65625q-0.484375 -0.625 -1.359375 -0.625q-0.84375 0 -1.390625 0.6875q-0.8125 1.046875 -0.8125 2.59375l0 2.0625q0 1.515625 0.859375 2.65625q0.484375 0.625 1.359375 0.625q0.84375 0 1.375 -0.6875q0.8125 -1.046875 0.8125 -2.59375l0 -2.0625zm10.398712 2.640625l2.828125 2.421875q0.515625 0.03125 0.765625 0.296875q0.25 0.25 0.25 0.65625q0 0.40625 -0.28125 0.671875q-0.28125 0.25 -0.96875 0.25l-2.109375 0q-0.671875 0 -0.96875 -0.25q-0.28125 -0.265625 -0.28125 -0.703125q0 -0.328125 0.203125 -0.578125q0.203125 -0.25 0.5625 -0.34375l-1.390625 -1.1875l-1.421875 1.1875q0.421875 0.109375 0.609375 0.34375q0.1875 0.234375 0.1875 0.578125q0 0.4375 -0.28125 0.703125q-0.28125 0.25 -0.953125 0.25l-2.109375 0q-0.671875 0 -0.96875 -0.25q-0.28125 -0.265625 -0.28125 -0.6875q0 -0.390625 0.25 -0.640625q0.265625 -0.265625 0.765625 -0.296875l2.78125 -2.4375l-2.453125 -2.09375q-0.484375 -0.03125 -0.734375 -0.28125q-0.25 -0.265625 -0.25 -0.65625q0 -0.40625 0.28125 -0.65625q0.296875 -0.265625 0.96875 -0.265625l1.75 0q0.671875 0 0.953125 0.265625q0.28125 0.25 0.28125 0.65625q0 0.53125 -0.5 0.859375l1.125 0.953125l1.109375 -0.96875q-0.5 -0.34375 -0.5 -0.8125q0 -0.4375 0.28125 -0.6875q0.296875 -0.265625 0.96875 -0.265625l1.734375 0q0.671875 0 0.953125 0.265625q0.296875 0.25 0.296875 0.671875q0 0.375 -0.25 0.640625q-0.25 0.25 -0.75 0.28125l-2.453125 2.109375zm11.476807 4.296875l0 -0.4375q-0.703125 0.375 -1.5625 0.5625q-0.84375 0.1875 -1.53125 0.1875q-1.5 0 -2.4375 -0.796875q-0.9375 -0.796875 -0.9375 -1.765625q0 -1.171875 1.1875 -2.171875q1.203125 -1.015625 3.3125 -1.015625q0.859375 0 1.96875 0.1875l0 -0.453125q0 -0.421875 -0.359375 -0.6875q-0.359375 -0.265625 -1.375 -0.265625q-0.828125 0 -2.15625 0.328125q-0.484375 0.125 -0.765625 0.125q-0.359375 0 -0.625 -0.265625q-0.265625 -0.265625 -0.265625 -0.6875q0 -0.234375 0.09375 -0.40625q0.09375 -0.1875 0.25 -0.28125q0.171875 -0.109375 0.6875 -0.25q0.703125 -0.203125 1.421875 -0.3125q0.71875 -0.109375 1.296875 -0.109375q1.734375 0 2.6875 0.75q0.96875 0.75 0.96875 2.046875l0 3.84375l0.328125 0q0.671875 0 0.953125 0.265625q0.296875 0.265625 0.296875 0.6875q0 0.40625 -0.296875 0.671875q-0.28125 0.25 -0.953125 0.25l-2.1875 0zm0 -3.34375q-1.125 -0.21875 -2.078125 -0.21875q-1.125 0 -1.953125 0.5625q-0.515625 0.34375 -0.515625 0.71875q0 0.265625 0.25 0.421875q0.453125 0.296875 1.25 0.296875q0.671875 0 1.515625 -0.265625q0.859375 -0.265625 1.53125 -0.71875l0 -0.796875zm13.586212 -3.59375l0 2.0625q0 1.8125 -1.0625 3.484375q-1.046875 1.65625 -3.0 1.65625q-1.125 0 -1.90625 -0.484375q-0.78125 -0.5 -1.484375 -1.828125q-0.6875 -1.34375 -0.6875 -2.828125l0 -2.0625q0 -1.8125 1.046875 -3.484375q1.046875 -1.671875 3.0 -1.671875q1.125 0 1.90625 0.5q0.78125 0.484375 1.484375 1.828125q0.703125 1.328125 0.703125 2.828125zm-1.875 0q0 -1.515625 -0.84375 -2.65625q-0.484375 -0.625 -1.359375 -0.625q-0.84375 0 -1.390625 0.6875q-0.8125 1.046875 -0.8125 2.59375l0 2.0625q0 1.515625 0.859375 2.65625q0.484375 0.625 1.359375 0.625q0.84375 0 1.375 -0.6875q0.8125 -1.046875 0.8125 -2.59375l0 -2.0625z" fill-rule="nonzero"/><path fill="#000000" d="m404.06158 435.0526q0.671875 -0.5625 1.28125 -0.8125q0.609375 -0.265625 1.3125 -0.265625q1.453125 0 2.5625 1.171875q1.109375 1.15625 1.109375 2.90625q0 1.640625 -1.03125 2.640625q-1.03125 1.0 -2.78125 1.0q-1.46875 0 -2.421875 -0.671875q-0.9375 -0.6875 -1.421875 -2.109375q-0.484375 -1.421875 -0.484375 -3.171875q0 -2.09375 0.953125 -3.484375q0.953125 -1.390625 2.25 -2.15625q1.296875 -0.765625 2.734375 -0.765625q1.140625 0 1.765625 0.453125q0.40625 0.296875 0.40625 0.765625q0 0.40625 -0.28125 0.6875q-0.265625 0.28125 -0.640625 0.28125q-0.21875 0 -0.625 -0.21875q-0.25 -0.125 -0.484375 -0.125q-0.890625 0 -1.84375 0.5q-0.953125 0.5 -1.65625 1.546875q-0.484375 0.734375 -0.703125 1.828125zm0.28125 2.890625q0.28125 1.09375 0.78125 1.5q0.5 0.390625 1.421875 0.390625q0.90625 0 1.40625 -0.484375q0.5 -0.484375 0.5 -1.3125q0 -0.953125 -0.578125 -1.578125q-0.5625 -0.625 -1.265625 -0.625q-0.5625 0 -1.21875 0.5625q-0.640625 0.546875 -1.046875 1.546875zm15.398712 -8.296875l0 7.296875q0.59375 0 0.875 0.265625q0.28125 0.25 0.28125 0.671875q0 0.40625 -0.28125 0.671875q-0.28125 0.265625 -0.875 0.265625l0 0.734375q0.59375 0 0.875 0.265625q0.28125 0.265625 0.28125 0.6875q0 0.40625 -0.28125 0.671875q-0.28125 0.25 -0.953125 0.25l-2.515625 0q-0.671875 0 -0.96875 -0.25q-0.28125 -0.265625 -0.28125 -0.6875q0 -0.40625 0.28125 -0.671875q0.296875 -0.265625 0.96875 -0.265625l0.734375 0l0 -0.734375l-5.078125 0l0 -1.5625l4.46875 -7.609375l2.46875 0zm-1.859375 7.296875l0 -4.59375l-2.703125 4.59375l2.703125 0z" fill-rule="nonzero"/><path fill="#000000" fill-opacity="0.0" d="m307.6929 15.643044l195.93701 0l0 38.771656l-195.93701 0z" fill-rule="evenodd"/><path fill="#000000" d="m317.47415 34.42492q0 -2.859373 1.53125 -4.468748q1.53125 -1.609375 3.953125 -1.609375q1.578125 0 2.84375 0.765625q1.28125 0.75 1.953125 2.109375q0.671875 1.3437481 0.671875 3.062498q0 1.75 -0.703125 3.125q-0.703125 1.375 -2.0 2.09375q-1.28125 0.703125 -2.78125 0.703125q-1.609375 0 -2.890625 -0.78125q-1.265625 -0.796875 -1.921875 -2.140625q-0.65625 -1.359375 -0.65625 -2.859375zm1.5625 0.015625q0 2.078125 1.109375 3.265625q1.109375 1.1875 2.796875 1.1875q1.703125 0 2.8125 -1.203125q1.109375 -1.203125 1.109375 -3.40625q0 -1.40625 -0.484375 -2.437498q-0.46875 -1.046875 -1.375 -1.625q-0.90625 -0.578125 -2.046875 -0.578125q-1.609375 0 -2.765625 1.109375q-1.15625 1.109375 -1.15625 3.687498zm16.601562 5.5625l0 -1.21875q-0.96875 1.40625 -2.640625 1.40625q-0.734375 0 -1.375 -0.28125q-0.625 -0.28125 -0.9375 -0.703125q-0.3125 -0.4375 -0.4375 -1.046875q-0.078125 -0.421875 -0.078125 -1.3125l0 -5.140623l1.40625 0l0 4.593748q0 1.109375 0.078125 1.484375q0.140625 0.5625 0.5625 0.875q0.4375 0.3125 1.0625 0.3125q0.640625 0 1.1875 -0.3125q0.5625 -0.328125 0.78125 -0.890625q0.234375 -0.5625 0.234375 -1.625l0 -4.437498l1.40625 0l0 8.296873l-1.25 0zm6.5234375 -1.265625l0.203125 1.25q-0.59375 0.125 -1.0625 0.125q-0.765625 0 -1.1875 -0.234375q-0.421875 -0.25 -0.59375 -0.640625q-0.171875 -0.40625 -0.171875 -1.671875l0 -4.765625l-1.03125 0l0 -1.0937481l1.03125 0l0 -2.0625l1.40625 -0.84375l0 2.90625l1.40625 0l0 1.0937481l-1.40625 0l0 4.84375q0 0.609375 0.0625 0.78125q0.078125 0.171875 0.25 0.28125q0.171875 0.09375 0.484375 0.09375q0.234375 0 0.609375 -0.0625zm1.3828125 4.453125l0 -11.484373l1.28125 0l0 1.0781231q0.453125 -0.640625 1.015625 -0.9531231q0.578125 -0.3125 1.390625 -0.3125q1.0625 0 1.875 0.5468731q0.8125 0.546875 1.21875 1.546875q0.421875 0.984375 0.421875 2.171875q0 1.28125 -0.46875 2.296875q-0.453125 1.015625 -1.328125 1.5625q-0.859375 0.546875 -1.828125 0.546875q-0.703125 0 -1.265625 -0.296875q-0.546875 -0.296875 -0.90625 -0.75l0 4.046875l-1.40625 0zm1.265625 -7.296875q0 1.609375 0.640625 2.375q0.65625 0.765625 1.578125 0.765625q0.9375 0 1.609375 -0.796875q0.671875 -0.796875 0.671875 -2.453125q0 -1.59375 -0.65625 -2.375q-0.65625 -0.796875 -1.5625 -0.796875q-0.890625 0 -1.59375 0.84375q-0.6875 0.84375 -0.6875 2.4375zm13.0703125 4.109375l0 -1.21875q-0.96875 1.40625 -2.640625 1.40625q-0.734375 0 -1.375 -0.28125q-0.625 -0.28125 -0.9375 -0.703125q-0.3125 -0.4375 -0.4375 -1.046875q-0.078125 -0.421875 -0.078125 -1.3125l0 -5.140623l1.40625 0l0 4.593748q0 1.109375 0.078125 1.484375q0.140625 0.5625 0.5625 0.875q0.4375 0.3125 1.0625 0.3125q0.640625 0 1.1875 -0.3125q0.5625 -0.328125 0.78125 -0.890625q0.234375 -0.5625 0.234375 -1.625l0 -4.437498l1.40625 0l0 8.296873l-1.25 0zm6.5234375 -1.265625l0.203125 1.25q-0.59375 0.125 -1.0625 0.125q-0.765625 0 -1.1875 -0.234375q-0.421875 -0.25 -0.59375 -0.640625q-0.171875 -0.40625 -0.171875 -1.671875l0 -4.765625l-1.03125 0l0 -1.0937481l1.03125 0l0 -2.0625l1.40625 -0.84375l0 2.90625l1.40625 0l0 1.0937481l-1.40625 0l0 4.84375q0 0.609375 0.0625 0.78125q0.078125 0.171875 0.25 0.28125q0.171875 0.09375 0.484375 0.09375q0.234375 0 0.609375 -0.0625zm11.234375 0.234375q-0.78125 0.671875 -1.5 0.953125q-0.71875 0.265625 -1.546875 0.265625q-1.375 0 -2.109375 -0.671875q-0.734375 -0.671875 -0.734375 -1.703125q0 -0.609375 0.28125 -1.109375q0.28125 -0.515625 0.71875 -0.8125q0.453125 -0.3125 1.015625 -0.46875q0.421875 -0.109375 1.25 -0.203125q1.703125 -0.203125 2.515625 -0.484375q0 -0.296875 0 -0.375q0 -0.859375 -0.390625 -1.203125q-0.546875 -0.484375 -1.609375 -0.484375q-0.984375 0 -1.46875 0.359375q-0.46875 0.34375 -0.6875 1.21875l-1.375 -0.1875q0.1875 -0.875 0.609375 -1.421875q0.4375 -0.546875 1.25 -0.8281231q0.8125 -0.296875 1.875 -0.296875q1.0625 0 1.71875 0.25q0.671875 0.2499981 0.984375 0.6249981q0.3125 0.375 0.4375 0.953125q0.078125 0.359375 0.078125 1.296875l0 1.875q0 1.96875 0.078125 2.484375q0.09375 0.515625 0.359375 1.0l-1.46875 0q-0.21875 -0.4375 -0.28125 -1.03125zm-0.109375 -3.140625q-0.765625 0.3125 -2.296875 0.53125q-0.875 0.125 -1.234375 0.28125q-0.359375 0.15625 -0.5625 0.46875q-0.1875 0.296875 -0.1875 0.65625q0 0.5625 0.421875 0.9375q0.4375 0.375 1.25 0.375q0.8125 0 1.4375 -0.34375q0.640625 -0.359375 0.9375 -0.984375q0.234375 -0.46875 0.234375 -1.40625l0 -0.515625zm3.5859375 4.171875l0 -8.296873l1.265625 0l0 1.2499981q0.484375 -0.875 0.890625 -1.1562481q0.40625 -0.28125 0.90625 -0.28125q0.703125 0 1.4375 0.453125l-0.484375 1.2968731q-0.515625 -0.296875 -1.03125 -0.296875q-0.453125 0 -0.828125 0.28125q-0.359375 0.265625 -0.515625 0.765625q-0.234375 0.75 -0.234375 1.640625l0 4.34375l-1.40625 0zm5.328125 0l0 -8.296873l1.265625 0l0 1.2499981q0.484375 -0.875 0.890625 -1.1562481q0.40625 -0.28125 0.90625 -0.28125q0.703125 0 1.4375 0.453125l-0.484375 1.2968731q-0.515625 -0.296875 -1.03125 -0.296875q-0.453125 0 -0.828125 0.28125q-0.359375 0.265625 -0.515625 0.765625q-0.234375 0.75 -0.234375 1.640625l0 4.34375l-1.40625 0zm10.75 -1.03125q-0.78125 0.671875 -1.5 0.953125q-0.71875 0.265625 -1.546875 0.265625q-1.375 0 -2.109375 -0.671875q-0.734375 -0.671875 -0.734375 -1.703125q0 -0.609375 0.28125 -1.109375q0.28125 -0.515625 0.71875 -0.8125q0.453125 -0.3125 1.015625 -0.46875q0.421875 -0.109375 1.25 -0.203125q1.703125 -0.203125 2.515625 -0.484375q0 -0.296875 0 -0.375q0 -0.859375 -0.390625 -1.203125q-0.546875 -0.484375 -1.609375 -0.484375q-0.984375 0 -1.46875 0.359375q-0.46875 0.34375 -0.6875 1.21875l-1.375 -0.1875q0.1875 -0.875 0.609375 -1.421875q0.4375 -0.546875 1.25 -0.8281231q0.8125 -0.296875 1.875 -0.296875q1.0625 0 1.71875 0.25q0.671875 0.2499981 0.984375 0.6249981q0.3125 0.375 0.4375 0.953125q0.078125 0.359375 0.078125 1.296875l0 1.875q0 1.96875 0.078125 2.484375q0.09375 0.515625 0.359375 1.0l-1.46875 0q-0.21875 -0.4375 -0.28125 -1.03125zm-0.109375 -3.140625q-0.765625 0.3125 -2.296875 0.53125q-0.875 0.125 -1.234375 0.28125q-0.359375 0.15625 -0.5625 0.46875q-0.1875 0.296875 -0.1875 0.65625q0 0.5625 0.421875 0.9375q0.4375 0.375 1.25 0.375q0.8125 0 1.4375 -0.34375q0.640625 -0.359375 0.9375 -0.984375q0.234375 -0.46875 0.234375 -1.40625l0 -0.515625zm3.5390625 7.375l-0.15625 -1.328125q0.453125 0.125 0.796875 0.125q0.46875 0 0.75 -0.15625q0.28125 -0.15625 0.46875 -0.4375q0.125 -0.203125 0.421875 -1.046875q0.046875 -0.109375 0.125 -0.34375l-3.140625 -8.312498l1.515625 0l1.71875 4.796873q0.34375 0.921875 0.609375 1.921875q0.234375 -0.96875 0.578125 -1.890625l1.765625 -4.828123l1.40625 0l-3.15625 8.437498q-0.5 1.375 -0.78125 1.890625q-0.375 0.6875 -0.859375 1.015625q-0.484375 0.328125 -1.15625 0.328125q-0.40625 0 -0.90625 -0.171875z" fill-rule="nonzero"/></g></svg>